<svg xmlns="http://www.w3.org/2000/svg" viewBox="0 0 292.28 62.53"><defs><style>.a{fill:#001024;}.b{fill:#ff0420;}</style></defs><path class="a" d="M79.65,8.9H91.48A21.61,21.61,0,0,1,94,9a7.39,7.39,0,0,1,1.66.39,2.65,2.65,0,0,1,1,.63,2.39,2.39,0,0,1,.52.9,4.39,4.39,0,0,1,.19,1.15c0,.42,0,.89,0,1.4s0,1,0,1.48a4.13,4.13,0,0,1-.24,1.22,2.47,2.47,0,0,1-.63,1,3.6,3.6,0,0,1-1.24.69,10.66,10.66,0,0,1-2,.42,28.66,28.66,0,0,1-3,.14H81.61v6.24h-2Zm2,7.87h8.53c.87,0,1.61,0,2.2,0a11.69,11.69,0,0,0,1.49-.17,2.56,2.56,0,0,0,.9-.35,1.33,1.33,0,0,0,.47-.6,2.75,2.75,0,0,0,.17-.88c0-.35,0-.76,0-1.24s0-.83,0-1.15a2.32,2.32,0,0,0-.17-.81,1.18,1.18,0,0,0-.47-.52,2.62,2.62,0,0,0-.9-.3,9.32,9.32,0,0,0-1.49-.14c-.59,0-1.33,0-2.2,0H81.61Z"/><path class="a" d="M110.91,8.9h2V24.65h-2Z"/><path class="a" d="M128.86,24.65h-2V8.9h3.45l14.44,13.78V8.9h2V24.65h-2.63L128.86,10.54Z"/><path class="a" d="M160.64,24.65h-2V8.9h3.46l14.44,13.78V8.9h2V24.65h-2.63L160.64,10.54Z"/><path class="a" d="M205.17,21H192.85l-2.06,3.61h-2.28l9-15.75h2.82l9,15.75h-2.07Zm-.93-1.64L199,10.2l-5.24,9.2Z"/><path class="a" d="M235.88,13.82a6,6,0,0,0-.26-2,2.1,2.1,0,0,0-.89-1.09,4,4,0,0,0-1.61-.47,24.58,24.58,0,0,0-2.48-.1H226c-.88,0-1.61,0-2.21.08a5,5,0,0,0-1.48.31,2,2,0,0,0-.9.68,2.88,2.88,0,0,0-.47,1.16,10.88,10.88,0,0,0-.16,1.79c0,.71,0,1.56,0,2.54s0,1.83,0,2.54A11.83,11.83,0,0,0,221,21.1a3.15,3.15,0,0,0,.46,1.17,2,2,0,0,0,.9.67,5,5,0,0,0,1.48.32c.6,0,1.33.07,2.21.07h4.6q1.16,0,2-.06a7.2,7.2,0,0,0,1.42-.22,2.66,2.66,0,0,0,.94-.45,2,2,0,0,0,.56-.73,3.67,3.67,0,0,0,.27-1,12.09,12.09,0,0,0,.07-1.43h2a12.06,12.06,0,0,1-.12,1.78,4.57,4.57,0,0,1-.44,1.41,3.62,3.62,0,0,1-.83,1.07,4.12,4.12,0,0,1-1.33.74,8.88,8.88,0,0,1-1.9.44,21.8,21.8,0,0,1-2.59.13H226a17.38,17.38,0,0,1-3-.22,6.61,6.61,0,0,1-2-.66A3.37,3.37,0,0,1,219.73,23a4.77,4.77,0,0,1-.64-1.58,11.38,11.38,0,0,1-.23-2.07c0-.76,0-1.61,0-2.54s0-1.78,0-2.54a11.26,11.26,0,0,1,.23-2.06,4.74,4.74,0,0,1,.64-1.59A3.46,3.46,0,0,1,221,9.45a6.88,6.88,0,0,1,2-.66,17.38,17.38,0,0,1,3-.22h4.6a19.71,19.71,0,0,1,2.59.14,9,9,0,0,1,1.9.42,4.28,4.28,0,0,1,1.33.71,3.55,3.55,0,0,1,.83,1,4.11,4.11,0,0,1,.44,1.32,10.26,10.26,0,0,1,.12,1.64Z"/><path class="a" d="M249.53,24.65V8.9h2V23H264v1.64Z"/><path class="a" d="M272.9,24.65V8.9h15.75v1.64H274.86v5.25H288v1.64H274.86V23h13.79v1.64Z"/><path d="M98.58,34c.44,0,.68.21.68.65v2.83c0,.44-.24.65-.68.65h-13c-3.09,0-4,.92-4,4v.3H98.43a.57.57,0,0,1,.65.65v2.35c0,.45-.2.66-.65.66H81.64v.5c0,3.12.86,4,4,4h13a.59.59,0,0,1,.68.66v2.82a.59.59,0,0,1-.68.66H85.5c-6,0-8.32-2.14-8.32-7.85V41.82c0-5.71,2.32-7.85,8.32-7.85Z"/><path d="M127.33,34c.53,0,.56.5.3.77L118.5,44,128,54c.27.27.24.78-.3.78h-4.07a1,1,0,0,1-1-.42l-7.34-7.7L108,54.36a1.1,1.1,0,0,1-1,.42h-3.87c-.5,0-.53-.51-.27-.78l9.78-10.16-8.82-9.1c-.24-.27-.24-.77.29-.77h4.07a1.12,1.12,0,0,1,1,.42l6.48,6.89,6.86-6.89a1.12,1.12,0,0,1,.95-.42Z"/><path d="M149,34c4.55,0,6.39,2.11,6.39,6.12v2.2c0,4-1.84,6.12-6.39,6.12H136.7v5.71a.58.58,0,0,1-.66.66h-3.21a.59.59,0,0,1-.68-.66V34.86A.79.79,0,0,1,133,34ZM136.7,44.49h11.38c2,0,2.76-.86,2.76-2.64V40.72c0-1.79-.74-2.65-2.76-2.65h-11c-.26,0-.38.09-.38.36Z"/><path d="M163.66,34c.45,0,.66.21.66.65V46.48c0,3.15.89,4.08,4,4.08h12a.57.57,0,0,1,.65.65v2.91c0,.45-.21.66-.65.66H168.09c-6,0-8.32-2.14-8.32-7.85V34.62c0-.44.24-.65.68-.65Z"/><path d="M200.91,34c6,0,8.33,2.14,8.33,7.85v5.11c0,5.71-2.29,7.85-8.33,7.85h-9.18c-6,0-8.33-2.14-8.33-7.85V41.82c0-5.71,2.32-7.85,8.33-7.85ZM188,46.6c0,3.12.89,4,4,4h8.82c3.07,0,4-.92,4-4V42.14c0-3.12-.89-4-4-4h-8.82c-3.07,0-4,.92-4,4Z"/><path d="M230.52,34c4.55,0,6.39,2.11,6.39,6.12v1.7c0,3.38-1.3,5.38-4.42,5.94l5.08,6.3a.46.46,0,0,1-.39.75h-3.83c-.51,0-.66-.12-.84-.39l-4.69-6.18h-9.6v5.91a.58.58,0,0,1-.66.66h-3.21a.59.59,0,0,1-.68-.66V34.86a.79.79,0,0,1,.89-.89Zm-12.3,10.61H229.6c2,0,2.77-.86,2.77-2.64V40.69c0-1.79-.75-2.65-2.77-2.65h-11c-.26,0-.38.12-.38.36Z"/><path d="M262.69,34c.45,0,.69.21.69.65v2.83c0,.44-.24.65-.69.65h-13c-3.09,0-3.95.92-3.95,4v.3h16.79c.45,0,.66.21.66.65v2.35a.58.58,0,0,1-.66.66H245.75v.5c0,3.12.86,4,3.95,4h13c.45,0,.69.21.69.66v2.82c0,.45-.24.66-.69.66H249.61c-6,0-8.32-2.14-8.32-7.85V41.82c0-5.71,2.32-7.85,8.32-7.85Z"/><path d="M285.14,34c4.55,0,6.39,2.11,6.39,6.12v1.7c0,3.38-1.31,5.38-4.43,5.94l5.08,6.3a.46.46,0,0,1-.38.75H288c-.5,0-.65-.12-.83-.39l-4.7-6.18h-9.6v5.91c0,.45-.2.66-.65.66H269c-.45,0-.68-.21-.68-.66V34.86a.79.79,0,0,1,.89-.89ZM272.83,44.58h11.39c2,0,2.76-.86,2.76-2.64V40.69c0-1.79-.74-2.65-2.76-2.65h-11c-.27,0-.39.12-.39.36Z"/><path class="b" d="M61.5,46.45A3.82,3.82,0,0,1,56,51.8L52,47.74l-.68-.68-.17-.17-.32-.32L50.23,46,50,45.8l-.57-.58L49.21,45c-.37-.39-.61-.62-.63-.64l0,0h0L41,36.75l0,0-.26-.25,0,0L40.25,36c-.09-.14-.18-.28-.26-.42a7.41,7.41,0,0,1-1.26-3v0a5.08,5.08,0,0,1-.11-1.28A7.49,7.49,0,0,1,40.8,26s0,0,0,0l7.67-7.67L56,10.72A3.81,3.81,0,0,1,61.52,16l-.11.11-5.28,5.28L51.55,26l-1.31,1.31a.47.47,0,0,1-.1.1,6.31,6.31,0,0,0-.52.62,5.51,5.51,0,0,0,0,6.4,6.13,6.13,0,0,0,.56.68h0l.1.11h0l1.33,1.33L56,41l5.37,5.37A.38.38,0,0,1,61.5,46.45ZM47.75,52l-.68-.68-.16-.17-.33-.32L46,50.23a1.89,1.89,0,0,1-.2-.2l-.58-.57L45,49.21c-.38-.37-.62-.61-.63-.63l0,0h0L36.76,41l0,0-.26-.26,0,0L36,40.25,35.6,40a7.35,7.35,0,0,0-3-1.26h0a5.08,5.08,0,0,0-1.28-.11A7.49,7.49,0,0,0,26,40.8l0,0-7.67,7.67L10.73,56A3.81,3.81,0,0,0,16,61.52a1.14,1.14,0,0,0,.11-.11l5.28-5.28L26,51.55l1.32-1.31.09-.1a5.17,5.17,0,0,1,.62-.52,5.51,5.51,0,0,1,6.4,0,5.19,5.19,0,0,1,.68.56h0l.1.1h0l1.33,1.33L41,56l5.37,5.37.1.09a3.79,3.79,0,0,0,5.29-.09A3.85,3.85,0,0,0,51.81,56ZM18.27,14l7.67,7.67,0,0a7.49,7.49,0,0,0,5.3,2.18,6.21,6.21,0,0,0,1.28-.11h0a7.49,7.49,0,0,0,3-1.26l.42-.26.43-.43,0,0,.26-.25,0,0L44.33,14h0l0,0,.63-.63.24-.24.58-.58.2-.2.57-.57.33-.32.16-.17.68-.68,4.06-4.06a3.86,3.86,0,0,0-.05-5.38A3.82,3.82,0,0,0,46.47,1l-.1.09L41,6.48,36.54,11l-1.33,1.32h0l-.1.11h0a5.11,5.11,0,0,1-.68.55,5.53,5.53,0,0,1-6.4,0,5.25,5.25,0,0,1-.62-.53l-.09-.09L26,11,21.4,6.4,16.12,1.11,16,1a3.82,3.82,0,0,0-5.28.1,3.83,3.83,0,0,0,0,5.39Zm-7,33,.17-.17.32-.32.57-.58.2-.19.58-.58.24-.24.63-.64,0,0h0l7.57-7.57,0,0,.25-.25,0,0,.43-.43c.09-.14.18-.28.26-.42a7.54,7.54,0,0,0,1.26-3v0a6.21,6.21,0,0,0,.11-1.28A7.49,7.49,0,0,0,21.73,26s0,0,0,0L14,18.25,6.5,10.72A3.81,3.81,0,0,0,1,16l.1.11L6.4,21.39,11,26l1.32,1.31.09.1a5.25,5.25,0,0,1,.53.62,5.53,5.53,0,0,1,0,6.4,5.11,5.11,0,0,1-.55.68h0l-.11.11h0L11,36.53,6.48,41,1.11,46.36,1,46.45a3.83,3.83,0,0,0,.09,5.3,3.87,3.87,0,0,0,5.38,0l4.06-4.06Z"/></svg>