<svg xmlns="http://www.w3.org/2000/svg" viewBox="0 0 312 47.16"><defs><style>.a{fill:#ff1d20;}</style></defs><path class="a" d="M81.05,14.05c0,1.25,0,2.49,0,3.73A78.28,78.28,0,0,1,79.45,31q-1.1,6.33-2.21,12.67c-.33,1.88-.95,2.42-2.86,2.44H69.76c-1.86,0-2.42-.63-2.12-2.48.45-2.75,1-5.48,1.44-8.22Q70.52,27.14,72,18.88,73.37,11,74.77,3A2.1,2.1,0,0,1,77.06,1.1c2.12,0,4.24,0,6.36,0a1.76,1.76,0,0,1,1.82,1.21c2.62,7.15,5.34,14.27,7.83,21.47A76.75,76.75,0,0,1,95,32c.09.36.15.72.23,1.08l.25,0a1.9,1.9,0,0,0,.17-.64,42,42,0,0,1,.08-9.57c.38-2.93.9-5.84,1.39-8.76.62-3.59,1.28-7.18,1.92-10.78.31-1.69.93-2.22,2.65-2.23s3.49,0,5.23,0c1.26,0,1.82.49,1.7,1.74-.16,1.73-.45,3.44-.74,5.15-.66,3.77-1.35,7.53-2,11.3s-1.35,7.64-2,11.47c-.73,4.16-1.48,8.33-2.18,12.5-.37,2.19-1.07,2.84-3.29,2.84H93.47c-1.44,0-1.94-.35-2.41-1.66-2.62-7.28-5.31-14.53-7.79-21.85a67.48,67.48,0,0,1-1.71-7.79c-.06-.28-.15-.54-.22-.82Z"/><path class="a" d="M140.75,33c-.07-.77-.16-1.53-.2-2.3a59.5,59.5,0,0,1,1.12-13.77c.84-4.47,1.59-9,2.37-13.44.32-1.87.94-2.4,2.87-2.41h5c1.44,0,2.05.7,1.83,2.18-.31,2-.67,4-1,6q-1.09,6.24-2.2,12.5-1.34,7.57-2.69,15.15c-.39,2.2-.77,4.39-1.16,6.59-.36,2-1.07,2.57-3,2.58h-5.15a2,2,0,0,1-2.31-1.67c-2.57-7.15-5.24-14.25-7.66-21.45a78.33,78.33,0,0,1-1.88-8.55,2,2,0,0,0-.14-.39,1.48,1.48,0,0,0-.3,0c0,.27-.05.53,0,.79a70,70,0,0,1-1.53,15.82c-.76,4.2-1.45,8.4-2.18,12.6-.06.34-.12.68-.21,1a2,2,0,0,1-2.11,1.82c-2,.07-3.9.06-5.84,0-1.15,0-1.71-.6-1.57-1.74.28-2.21.69-4.41,1.07-6.61q1.44-8.31,2.91-16.61t2.93-16.44c.12-.65.2-1.32.37-2a1.91,1.91,0,0,1,2-1.6c2.24,0,4.48,0,6.72,0a1.62,1.62,0,0,1,1.61,1.12c2.73,7.48,5.53,14.94,8.15,22.47A62.73,62.73,0,0,1,140.05,32c.09.39.22.76.34,1.13Z"/><path class="a" d="M287.79,36.94h15.59c2.69,0,3.18.6,2.67,3.25-.24,1.23-.44,2.46-.68,3.68-.32,1.65-1,2.22-2.69,2.22h-24c-1.68,0-2.29-.69-2-2.35.81-4.69,1.66-9.36,2.48-14,.65-3.74,1.29-7.49,1.95-11.23.88-5,1.76-10.1,2.67-15.15.3-1.64,1-2.22,2.7-2.22q11.82,0,23.63,0c1.49,0,2,.46,1.85,1.94a55.7,55.7,0,0,1-1,5.56c-.25,1.13-1,1.57-2.19,1.58H292.49c-.48,2.83-1,5.63-1.47,8.54h12.56c2.07,0,2.6.68,2.2,2.7-.28,1.39-.51,2.79-.76,4.19-.3,1.65-.94,2.21-2.66,2.22-4,0-8,0-12,0-.69,0-.95.18-1.06.88C288.82,31.41,288.3,34.1,287.79,36.94Z"/><path class="a" d="M189.82,46a32.49,32.49,0,0,1-3.56,0c-1.64-.19-2.23-.93-2.38-2.59s-.32-3.47-.54-5.19a.83.83,0,0,0-.61-.58q-6.57-.06-13.16,0a1.14,1.14,0,0,0-.77.62c-.88,1.88-1.77,3.77-2.56,5.7A3.13,3.13,0,0,1,163,46.09c-1.92,0-3.83,0-5.75,0-1.67,0-2.32-1-1.65-2.54.47-1.12,1.07-2.18,1.63-3.26q9.58-18.55,19.16-37.1a3.25,3.25,0,0,1,3.46-2.13c1.79.14,3.6,0,5.4,0A2,2,0,0,1,187.6,3c.61,3.27,1.14,6.56,1.69,9.85l3.12,18.59q1.07,6.35,2.1,12.7c.21,1.3-.3,1.92-1.64,2-1,.05-2,0-3.05,0Zm-8.71-36c-1.83,6.79-5.23,12.89-8,19.33h9C181.86,22.84,180.59,16.48,181.11,10Z"/><path class="a" d="M12.23,31.27,10.08,43.08c-.07.37-.13.74-.23,1.11a2.14,2.14,0,0,1-2.27,1.88q-2.91.09-5.84,0C.31,46-.19,45.31.07,43.77c.54-3.29,1.13-6.57,1.71-9.85.74-4.2,1.47-8.39,2.22-12.58q1-5.52,2-11l1.2-6.76c.35-1.95.93-2.44,2.92-2.44,4.94,0,9.88,0,14.82,0a15.27,15.27,0,0,1,5.92,1.23A10.26,10.26,0,0,1,37.11,10a19,19,0,0,1-1,11.62c-2.23,5.32-6.36,8.29-11.94,9.31a32.74,32.74,0,0,1-4.76.38C17.06,31.32,14.68,31.27,12.23,31.27ZM13.84,22c2.74,0,5.33.16,7.89-.05A5.71,5.71,0,0,0,27.09,18a11.57,11.57,0,0,0,.42-3.85,3.65,3.65,0,0,0-3.58-3.8c-2.65-.17-5.32,0-8.1,0Z"/><path class="a" d="M202.43,33.61c.47-2.89.91-5.78,1.43-8.66.71-3.84,1.28-7.73,2.29-11.5,1.53-5.72,4.93-10,10.66-12.11A22,22,0,0,1,230.34.82c5.18,1.41,8.12,5,9.42,10.09.51,2,.18,2.58-1.84,3.16-1.62.46-3.23.92-4.86,1.35a1.5,1.5,0,0,1-2-1,5.66,5.66,0,0,1-.32-.9c-.81-3.08-3-4-5.31-4.24a13.69,13.69,0,0,0-3.56.09c-3.78.61-5.68,3.19-6.44,6.67s-1.31,7-1.92,10.43a46.73,46.73,0,0,0-.86,5.84c-.16,3.4,1.62,5.2,5,5.55a8.25,8.25,0,0,0,8.73-4.58c.18-.33.37-.66.57-1a1.62,1.62,0,0,1,1.94-.81c2,.67,4,1.35,6,2.17,1.21.51,1.39,1.7.66,3.24a16.17,16.17,0,0,1-9.67,8.87,22.33,22.33,0,0,1-15.68-.12c-4.34-1.71-6.72-5.07-7.3-9.7-.1-.78-.16-1.56-.24-2.33Z"/><path class="a" d="M254.41,36.94h14.17c1.93.07,2.5.75,2.18,2.66-.26,1.51-.56,3-.86,4.52a2.09,2.09,0,0,1-2.25,2c-.55,0-1.11,0-1.66,0h-20.4c-2,0-2.56-.56-2.22-2.58.89-5.26,1.82-10.51,2.74-15.76q1.08-6.21,2.17-12.41c.7-4.06,1.4-8.11,2.13-12.16.29-1.58,1-2.08,2.6-2.09h5.4c1.47,0,2.11.77,1.87,2.24-.29,1.74-.6,3.48-.91,5.22L256.82,23q-1.2,6.77-2.41,13.51C254.4,36.62,254.41,36.71,254.41,36.94Z"/><path class="a" d="M57.53,1.1c1,0,2,0,3,0s1.73.57,1.6,1.7c-.23,2-.59,4-.93,5.92Q59.81,17,58.36,25.32,57,32.94,55.68,40.55c-.2,1.14-.39,2.29-.62,3.42a2.29,2.29,0,0,1-2.61,2.12c-1.77,0-3.55,0-5.32,0-1.6,0-2.22-.72-2-2.33.55-3.32,1.15-6.62,1.73-9.93Q48,27.58,49.11,21.34c.89-5.05,1.8-10.1,2.7-15.15C52,5.11,52.17,4,52.4,3A2.06,2.06,0,0,1,54.66,1.1C55.61,1.08,56.57,1.1,57.53,1.1Z"/></svg>