<svg xmlns="http://www.w3.org/2000/svg" viewBox="0 0 48 48"><defs><style>.a{fill:#ff1d20;}.b{fill:#fff;}</style></defs><rect class="a" width="48" height="48"/><path class="b" d="M18.73,32.49l-1.05,0a.46.46,0,0,1-.23,0s-.05-.07,0-.34l.48-2.77,2.15-12.16c.1-.53.15-.57.69-.57H27A5.33,5.33,0,0,1,29,17a3.42,3.42,0,0,1,2.1,2.54,6.69,6.69,0,0,1-.33,4.07,5.25,5.25,0,0,1-4.14,3.22,12.77,12.77,0,0,1-1.7.13H21.23l-.86,4.71a3.43,3.43,0,0,1-.08.38c-.09.33-.19.39-.46.4Zm3-8.15h2.73c.52,0,1,0,1.39,0a2.48,2.48,0,0,0,2.33-1.74A4.55,4.55,0,0,0,28.32,21a1.75,1.75,0,0,0-1.7-1.8c-.4,0-.91,0-1.44,0H22.56Z"/></svg>