<svg xmlns="http://www.w3.org/2000/svg" viewBox="0 0 126.02 27.52"><defs><style>.a{stroke:#000;stroke-miterlimit:10;stroke-width:0.25px;}.b{fill:#ff0420;}</style></defs><path class="a" d="M34.84,4H40a8.25,8.25,0,0,1,1.07.05,2.91,2.91,0,0,1,.73.17,1.11,1.11,0,0,1,.44.28,1.09,1.09,0,0,1,.23.39,2.27,2.27,0,0,1,.08.5c0,.18,0,.38,0,.61s0,.44,0,.64a1.72,1.72,0,0,1-.1.53,1.07,1.07,0,0,1-.28.42,1.26,1.26,0,0,1-.54.31,4.23,4.23,0,0,1-.88.18,12.44,12.44,0,0,1-1.33.06H35.7v2.72h-.86Zm.86,3.43h3.71l1,0A4.6,4.6,0,0,0,41,7.35a.88.88,0,0,0,.39-.15.61.61,0,0,0,.21-.26,1.36,1.36,0,0,0,.07-.38c0-.15,0-.33,0-.54s0-.36,0-.5a1.21,1.21,0,0,0-.07-.36.56.56,0,0,0-.21-.22A1.24,1.24,0,0,0,41,4.8a5,5,0,0,0-.65-.06H35.7Z"/><path class="a" d="M48.46,4h.86v6.86h-.86Z"/><path class="a" d="M56.28,10.88h-.85V4h1.5l6.29,6V4h.86v6.86H62.94L56.28,4.73Z"/><path class="a" d="M70.13,10.88h-.86V4h1.51l6.29,6V4h.85v6.86H76.78L70.13,4.73Z"/><path class="a" d="M89.53,9.31H84.16l-.9,1.57h-1L86.19,4h1.23l3.9,6.86h-.9Zm-.41-.72-2.27-4-2.28,4Z"/><path class="a" d="M102.91,6.16a2.44,2.44,0,0,0-.12-.85.85.85,0,0,0-.38-.47,1.65,1.65,0,0,0-.7-.21c-.29,0-.65,0-1.08,0h-2q-.57,0-1,0a2.17,2.17,0,0,0-.65.14.84.84,0,0,0-.39.29,1.33,1.33,0,0,0-.2.51,4.16,4.16,0,0,0-.07.78c0,.31,0,.68,0,1.11s0,.79,0,1.1a5.23,5.23,0,0,0,.07.78,1.33,1.33,0,0,0,.2.51.85.85,0,0,0,.39.3,2.56,2.56,0,0,0,.65.13c.26,0,.58,0,1,0h2c.33,0,.62,0,.86,0a3.21,3.21,0,0,0,.62-.1,1.12,1.12,0,0,0,.41-.2.83.83,0,0,0,.24-.31,1.47,1.47,0,0,0,.12-.46,5.46,5.46,0,0,0,0-.62h.86a4.46,4.46,0,0,1-.06.77,1.88,1.88,0,0,1-.19.62,1.51,1.51,0,0,1-.36.47,1.69,1.69,0,0,1-.58.32,3.51,3.51,0,0,1-.83.19,9.11,9.11,0,0,1-1.12.06h-2a7.09,7.09,0,0,1-1.32-.1,2.74,2.74,0,0,1-.89-.29,1.58,1.58,0,0,1-.54-.48,2.1,2.1,0,0,1-.28-.7,5.61,5.61,0,0,1-.1-.9c0-.33,0-.7,0-1.1s0-.78,0-1.11a5.89,5.89,0,0,1,.1-.9,2.13,2.13,0,0,1,.28-.69,1.51,1.51,0,0,1,.54-.49A2.74,2.74,0,0,1,97.3,4a8.07,8.07,0,0,1,1.32-.1h2a9.11,9.11,0,0,1,1.12.06,3.51,3.51,0,0,1,.83.19,1.68,1.68,0,0,1,.58.31,1.39,1.39,0,0,1,.36.44,1.72,1.72,0,0,1,.19.58,3.84,3.84,0,0,1,.06.71Z"/><path class="a" d="M108.86,10.88V4h.85v6.14h5.44v.72Z"/><path class="a" d="M119,10.88V4h6.87v.71h-6V7h5.72v.71h-5.72v2.43h6v.72Z"/><path class="b" d="M27.08,20.38a1.68,1.68,0,0,1,0,2.31,1.71,1.71,0,0,1-2.35,0l-1.76-1.77-.3-.3-.07-.07-.14-.14-.26-.25-.08-.09-.25-.25-.11-.11-.27-.27h0l-3.29-3.3h0L18,16h0l-.19-.19a1.74,1.74,0,0,0-.11-.18,3.41,3.41,0,0,1-.55-1.33h0a2.69,2.69,0,0,1,0-.56,3.29,3.29,0,0,1,.94-2.31v0l3.35-3.34,3.28-3.28a1.66,1.66,0,0,1,2.39,2.3l0,0-2.31,2.3-2,2-.57.58a.08.08,0,0,0,0,0,1.49,1.49,0,0,0-.23.27,2.39,2.39,0,0,0,0,2.79,2.17,2.17,0,0,0,.24.29h0l.05,0h0l.58.58L24.7,18,27,20.34Zm-6.14,2.54-.29-.29-.07-.07-.15-.15-.25-.25a.6.6,0,0,1-.08-.08l-.25-.25-.11-.11-.28-.27h0l-3.29-3.29v0L16,18h0l-.19-.19-.18-.11a3.37,3.37,0,0,0-1.32-.55h0a3.53,3.53,0,0,0-.56,0,3.32,3.32,0,0,0-2.31.95h0L8.1,21.41,4.82,24.69a1.66,1.66,0,0,0,0,2.35A1.64,1.64,0,0,0,6,27.52a1.69,1.69,0,0,0,1.13-.44l0,0,2.31-2.31,2-2,.57-.57,0,0a2.76,2.76,0,0,1,.27-.23,2.4,2.4,0,0,1,1.41-.46,2.34,2.34,0,0,1,1.38.44,1.76,1.76,0,0,1,.3.24h0l.05.05h0l.58.58L18,24.7,20.34,27a.08.08,0,0,1,0,0,1.7,1.7,0,0,0,1.14.44A1.66,1.66,0,0,0,22.69,27a1.69,1.69,0,0,0,0-2.35ZM8.1,6.12l3.34,3.34h0a3.32,3.32,0,0,0,2.31.95,2.65,2.65,0,0,0,.56-.05h0a3.37,3.37,0,0,0,1.32-.55l.18-.11L16,9.52h0l.12-.11v0l3.29-3.29h0l.28-.27.11-.11.25-.25.08-.08.25-.25L20.58,5l.07-.07.29-.29,1.77-1.77a1.69,1.69,0,0,0,0-2.35,1.67,1.67,0,0,0-2.31,0l0,0L18,2.82,16.06,4.77l-.58.58h0l-.05.05h0a1.76,1.76,0,0,1-.3.24,2.34,2.34,0,0,1-1.38.44,2.4,2.4,0,0,1-1.41-.46,2.76,2.76,0,0,1-.27-.23l0,0-.57-.57-2-2L7.16.48l0,0A1.69,1.69,0,0,0,6,0,1.64,1.64,0,0,0,4.82.48a1.66,1.66,0,0,0,0,2.35ZM4.89,20.64,5,20.57l.15-.14.25-.25.08-.09.25-.25.11-.11.27-.27h0l3.29-3.3h0L9.51,16h0l.19-.19.11-.18a3.41,3.41,0,0,0,.55-1.33h0a2.71,2.71,0,0,0,.05-.56,3.3,3.3,0,0,0-.95-2.31v0L6.12,8.09,2.83,4.81A1.66,1.66,0,0,0,.44,7.11l0,0,2.31,2.3,2,2,.57.58a.08.08,0,0,1,0,0,1.49,1.49,0,0,1,.23.27,2.39,2.39,0,0,1,0,2.79,2.17,2.17,0,0,1-.24.29h0l-.05,0h0l-.58.58L2.82,18,.48,20.34l0,0A1.64,1.64,0,0,0,0,21.51a1.68,1.68,0,0,0,.48,1.18,1.71,1.71,0,0,0,2.35,0L4.6,20.94Z"/></svg>