<svg xmlns="http://www.w3.org/2000/svg" viewBox="0 0 24.39 24.39"><defs><style>.a{fill:#ff0420;}</style></defs><path class="a" d="M24,18a1.46,1.46,0,0,1,0,2,1.48,1.48,0,0,1-2.06,0l-1.56-1.56-.26-.26L20,18.2a1.59,1.59,0,0,0-.13-.13l-.22-.22-.07-.08-.23-.22-.09-.09a2.2,2.2,0,0,0-.24-.24h0L16.12,14.3h0l-.1-.1h0L15.84,14c0-.06-.07-.11-.1-.16a2.82,2.82,0,0,1-.48-1.17h0a2,2,0,0,1,0-.49,2.86,2.86,0,0,1,.84-2h0L19,7.2l2.9-2.89a1.46,1.46,0,0,1,2.1,2s0,0,0,0l-2,2-1.76,1.75-.51.51,0,0-.2.24a2.07,2.07,0,0,0-.4,1.25,2.1,2.1,0,0,0,.38,1.21,1.71,1.71,0,0,0,.21.26h0a.08.08,0,0,0,0,0h0l.51.51,1.71,1.71L24,18Zm-5.47,2.31-.27-.26L18.2,20l-.12-.13-.23-.22-.07-.07-.22-.23-.1-.09L17.22,19h0l-2.9-2.91h0l-.1-.1h0L14,15.84l-.16-.1a2.83,2.83,0,0,0-1.16-.48h0a2.09,2.09,0,0,0-.49,0,2.91,2.91,0,0,0-2,.84h0L7.21,19l-2.9,2.9a1.47,1.47,0,0,0,0,2.06,1.46,1.46,0,0,0,2,0,.08.08,0,0,0,0,0l2-2,1.76-1.76.5-.51,0,0a1.59,1.59,0,0,1,.24-.2,2.06,2.06,0,0,1,1.24-.4,2.15,2.15,0,0,1,1.22.38,1.64,1.64,0,0,1,.25.21h0l0,0h0l.51.51,1.71,1.71L18,24l0,0a1.47,1.47,0,0,0,1,.39,1.43,1.43,0,0,0,1-.43,1.47,1.47,0,0,0,0-2.06ZM7.21,5.39l2.94,2.94h0a2.91,2.91,0,0,0,2,.84,2.77,2.77,0,0,0,.49,0h0a2.83,2.83,0,0,0,1.16-.48l.16-.1.17-.16h0l.1-.1h0l2.9-2.91h0s.1-.1.24-.24l.1-.09.22-.23.07-.07.23-.22.12-.13.06-.06.27-.26,1.55-1.56a1.47,1.47,0,0,0,0-2.06A1.43,1.43,0,0,0,19,0a1.47,1.47,0,0,0-1,.39s0,0,0,0L15.93,2.49,14.22,4.2l-.51.51h0l0,0h0a1.64,1.64,0,0,1-.25.21,2.16,2.16,0,0,1-1.22.39A2.07,2.07,0,0,1,11,5a1.16,1.16,0,0,1-.24-.2l0,0-.5-.51L8.41,2.46l-2-2a.08.08,0,0,0,0,0,1.46,1.46,0,0,0-2,0,1.49,1.49,0,0,0,0,2.07ZM4.31,18.26l.06-.06.13-.13.22-.22.07-.08L5,17.55l.09-.09c.14-.15.24-.24.24-.24h0L8.27,14.3h0l.1-.1h0L8.55,14l.1-.16a2.82,2.82,0,0,0,.48-1.17h0a2.63,2.63,0,0,0,0-.49,2.86,2.86,0,0,0-.84-2h0L5.39,7.2,2.5,4.31a1.47,1.47,0,0,0-2.07,0,1.45,1.45,0,0,0-.43,1,1.47,1.47,0,0,0,.39,1s0,0,0,0l2,2,1.75,1.75.51.51,0,0a2.12,2.12,0,0,1,.2.24,2.08,2.08,0,0,1,.41,1.25A2.1,2.1,0,0,1,5,13.4a1.71,1.71,0,0,1-.21.26h0l0,0h0l-.51.51L2.49,15.93.43,18l0,0a1.46,1.46,0,0,0,0,2,1.48,1.48,0,0,0,2.06,0l1.56-1.56Z"/></svg>