<svg xmlns="http://www.w3.org/2000/svg" viewBox="0 0 163.28 149.82"><defs><style>.a{fill:#fff;}.b{fill:#ff0420;}</style></defs><path class="a" d="M2.4,114.55h7.74a12.27,12.27,0,0,1,1.62.09,4.51,4.51,0,0,1,1.09.25,1.91,1.91,0,0,1,.66.41,1.56,1.56,0,0,1,.33.59,2.45,2.45,0,0,1,.13.75c0,.27,0,.58,0,.92s0,.67,0,1a2.48,2.48,0,0,1-.15.8,1.66,1.66,0,0,1-.42.63,2.08,2.08,0,0,1-.81.46,6.31,6.31,0,0,1-1.33.27,18.26,18.26,0,0,1-2,.1H3.68v4.07H2.4Zm1.28,5.15H9.26q.86,0,1.44,0a5.67,5.67,0,0,0,1-.11,1.48,1.48,0,0,0,.59-.23.83.83,0,0,0,.31-.38,2,2,0,0,0,.11-.58c0-.23,0-.5,0-.81s0-.54,0-.75a1.55,1.55,0,0,0-.11-.53.81.81,0,0,0-.31-.35,1.7,1.7,0,0,0-.59-.19,5.94,5.94,0,0,0-1-.09q-.58,0-1.44,0H3.68Z"/><path class="a" d="M25.32,114.55h1.29v10.3H25.32Z"/><path class="a" d="M40.08,124.85H38.8v-10.3h2.26l9.44,9v-9h1.29v10.3H50.07l-10-9.23Z"/><path class="a" d="M64.58,124.85H63.29v-10.3h2.26l9.45,9v-9h1.28v10.3H74.57l-10-9.23Z"/><path class="a" d="M95.76,122.49H87.7l-1.34,2.36H84.87l5.88-10.3h1.84l5.86,10.3H97.1Zm-.61-1.07-3.41-6-3.43,6Z"/><path class="a" d="M117.91,117.77a3.89,3.89,0,0,0-.17-1.27,1.33,1.33,0,0,0-.58-.71,2.37,2.37,0,0,0-1-.31,14.85,14.85,0,0,0-1.62-.07h-3c-.57,0-1,0-1.44,0a3,3,0,0,0-1,.21,1.28,1.28,0,0,0-.59.44,1.89,1.89,0,0,0-.3.76,6.29,6.29,0,0,0-.11,1.17c0,.47,0,1,0,1.66s0,1.2,0,1.66a7.05,7.05,0,0,0,.11,1.17,2.21,2.21,0,0,0,.3.77,1.28,1.28,0,0,0,.59.44,3.7,3.7,0,0,0,1,.21c.39,0,.87,0,1.44,0h3c.5,0,.93,0,1.29,0a4.57,4.57,0,0,0,.93-.14,1.58,1.58,0,0,0,.61-.3,1.23,1.23,0,0,0,.37-.47,2.49,2.49,0,0,0,.18-.68,8.69,8.69,0,0,0,0-.94h1.29a8,8,0,0,1-.08,1.16,2.9,2.9,0,0,1-.29.93,2.16,2.16,0,0,1-.54.7,2.79,2.79,0,0,1-.87.49,6.17,6.17,0,0,1-1.24.28,14,14,0,0,1-1.69.09h-3a11,11,0,0,1-2-.15,4.31,4.31,0,0,1-1.34-.43,2.21,2.21,0,0,1-.8-.74,3.15,3.15,0,0,1-.42-1,6.6,6.6,0,0,1-.15-1.34c0-.5,0-1.06,0-1.67s0-1.16,0-1.66a6.79,6.79,0,0,1,.15-1.35,3.24,3.24,0,0,1,.42-1,2.18,2.18,0,0,1,.8-.73,4.3,4.3,0,0,1,1.34-.44,12.14,12.14,0,0,1,2-.14h3a14,14,0,0,1,1.69.09,6.21,6.21,0,0,1,1.24.27,3,3,0,0,1,.87.47,2.12,2.12,0,0,1,.54.66,2.7,2.7,0,0,1,.29.87,7,7,0,0,1,.08,1.07Z"/><path class="a" d="M131,124.85v-10.3h1.29v9.23h8.16v1.07Z"/><path class="a" d="M149.68,124.85v-10.3H160v1.07h-9v3.44h8.59v1.07H151v3.65h9v1.07Z"/><path class="a" d="M16.29,134c.34,0,.52.16.52.5v2.15c0,.34-.18.49-.52.49H6.4c-2.35,0-3,.71-3,3.08v.23H16.18a.44.44,0,0,1,.5.5v1.78a.44.44,0,0,1-.5.5H3.39v.39c0,2.37.66,3.07,3,3.07h9.89c.34,0,.52.16.52.5v2.15c0,.34-.18.5-.52.5H6.34c-4.58,0-6.34-1.63-6.34-6V140c0-4.34,1.76-6,6.34-6Z"/><path class="a" d="M38.17,134c.41,0,.44.38.23.59l-6.95,7,7.27,7.62c.2.2.18.59-.23.59h-3.1a.78.78,0,0,1-.72-.32l-5.59-5.86-5.61,5.86a.85.85,0,0,1-.75.32H19.78c-.39,0-.41-.39-.21-.59L27,141.49l-6.72-6.92c-.18-.21-.18-.59.22-.59h3.1a.83.83,0,0,1,.73.32l4.93,5.25,5.23-5.25a.83.83,0,0,1,.72-.32Z"/><path class="a" d="M54.67,134c3.46,0,4.87,1.61,4.87,4.66v1.68c0,3.05-1.41,4.66-4.87,4.66H45.3v4.34c0,.34-.16.5-.49.5H42.36c-.34,0-.52-.16-.52-.5V134.66a.6.6,0,0,1,.68-.68Zm-9.37,8H54c1.54,0,2.1-.66,2.1-2v-.86c0-1.36-.56-2-2.1-2H45.6c-.21,0-.3.07-.3.27Z"/><path class="a" d="M65.83,134a.44.44,0,0,1,.5.5v9c0,2.4.67,3.1,3,3.1H78.5c.34,0,.5.15.5.49v2.22a.44.44,0,0,1-.5.5H69.2c-4.57,0-6.34-1.63-6.34-6v-9.37c0-.34.18-.5.52-.5Z"/><path class="a" d="M94.18,134c4.6,0,6.34,1.63,6.34,6v3.9c0,4.34-1.74,6-6.34,6h-7c-4.57,0-6.34-1.63-6.34-6V140c0-4.34,1.77-6,6.34-6Zm-9.86,9.62c0,2.37.67,3.07,3,3.07h6.72c2.33,0,3-.7,3-3.07v-3.4c0-2.37-.68-3.08-3-3.08H87.33c-2.34,0-3,.71-3,3.08Z"/><path class="a" d="M116.72,134c3.46,0,4.87,1.61,4.87,4.66v1.29c0,2.58-1,4.1-3.38,4.53l3.87,4.79a.35.35,0,0,1-.29.57h-2.92c-.38,0-.5-.09-.63-.29l-3.58-4.71h-7.31v4.5a.44.44,0,0,1-.5.5h-2.44c-.34,0-.52-.16-.52-.5V134.66a.6.6,0,0,1,.68-.68Zm-9.37,8.08H116c1.54,0,2.1-.66,2.1-2v-.95c0-1.35-.56-2-2.1-2h-8.37c-.21,0-.3.09-.3.27Z"/><path class="a" d="M141.21,134a.45.45,0,0,1,.52.5v2.15c0,.34-.19.49-.52.49h-9.89c-2.36,0-3,.71-3,3.08v.23h12.78a.44.44,0,0,1,.5.5v1.78a.44.44,0,0,1-.5.5H128.31v.39c0,2.37.65,3.07,3,3.07h9.89a.45.45,0,0,1,.52.5v2.15a.45.45,0,0,1-.52.5h-10c-4.57,0-6.34-1.63-6.34-6V140c0-4.34,1.77-6,6.34-6Z"/><path class="a" d="M157.84,134c3.46,0,4.86,1.61,4.86,4.66v1.29c0,2.58-1,4.1-3.37,4.53l3.87,4.79a.35.35,0,0,1-.29.57H160c-.39,0-.5-.09-.64-.29l-3.57-4.71h-7.31v4.5a.44.44,0,0,1-.5.5h-2.44c-.34,0-.52-.16-.52-.5V134.66a.6.6,0,0,1,.68-.68Zm-9.37,8.08h8.67c1.53,0,2.1-.66,2.1-2v-.95c0-1.35-.57-2-2.1-2h-8.38c-.2,0-.29.09-.29.27Z"/><path class="b" d="M126.37,68a5.61,5.61,0,0,1-.13,7.75,5.66,5.66,0,0,1-7.87.07l-5.94-5.94-1-1-.24-.25-.48-.47-.84-.84-.29-.29-.84-.84-.36-.36-.92-.93,0,0h0L96.36,53.76l0,0-.38-.38,0,0-.64-.64c-.13-.2-.26-.4-.38-.61a11,11,0,0,1-1.83-4.43.06.06,0,0,1,0,0,8.46,8.46,0,0,1-.16-1.86A11,11,0,0,1,96.08,38l0,0L107.33,26.7l11-11a5.58,5.58,0,0,1,8,7.73l-.15.15-7.73,7.73-6.7,6.7-1.92,1.92-.14.14A9.73,9.73,0,0,0,109,41a8.05,8.05,0,0,0-.06,9.36,7,7,0,0,0,.81,1h0a1.14,1.14,0,0,0,.16.15h0l1.94,1.94L118.38,60l7.86,7.85ZM106.25,76c-.33-.34-.67-.67-1-1l-.25-.25-.47-.47-.84-.84-.29-.29-.84-.85-.36-.35-.93-.92a.11.11,0,0,1,0,0h0L90.18,60l0,0-.38-.37,0,0-.64-.63c-.2-.13-.4-.26-.61-.38a11,11,0,0,0-4.43-1.84h0a8.41,8.41,0,0,0-1.86-.16,11,11,0,0,0-7.76,3.18l0,0L63.12,70.93l-11,11a5.57,5.57,0,0,0,7.73,8c.05,0,.1-.1.15-.15l7.73-7.73,6.7-6.69,1.92-1.92.14-.14a8.41,8.41,0,0,1,.91-.77,8.07,8.07,0,0,1,9.36-.07,7.07,7.07,0,0,1,1,.82h0l.15.15h0l1.94,1.94L96.38,82l7.85,7.85.14.14a5.6,5.6,0,0,0,7.75-.14,5.65,5.65,0,0,0,.07-7.86ZM63.12,20.53,74.34,31.75l0,0A11,11,0,0,0,82.15,35,7.85,7.85,0,0,0,84,34.81h0A11,11,0,0,0,88.48,33c.21-.12.41-.25.61-.38l.64-.63,0,0,.38-.37,0,0,11.07-11.07h0a.11.11,0,0,1,0,0l.93-.92.36-.35.84-.85.29-.29.84-.84.47-.47.25-.25,1-1,5.94-5.94a5.6,5.6,0,0,0-4-9.49,5.55,5.55,0,0,0-3.81,1.5l-.14.13L96.38,9.48,89.85,16,87.91,18h0l-.15.15h0a7.76,7.76,0,0,1-1,.81,8.07,8.07,0,0,1-9.36-.07,7.41,7.41,0,0,1-.91-.77L76.33,18l-1.92-1.92-6.7-6.69L60,1.63s-.1-.11-.15-.15a5.57,5.57,0,0,0-7.73,8ZM52.83,68.84l.24-.25.47-.47.85-.84.28-.29.85-.84.35-.36.93-.93,0,0h0L67.91,53.76l0,0,.37-.38,0,0,.63-.64c.13-.2.26-.4.38-.61a10.88,10.88,0,0,0,1.84-4.43v0a7.89,7.89,0,0,0,.16-1.86A11,11,0,0,0,68.19,38l0,0L56.93,26.7l-11-11a5.57,5.57,0,0,0-8,7.73l.15.15,7.73,7.73L52.45,38l1.93,1.92.13.14a7.41,7.41,0,0,1,.77.91,8.07,8.07,0,0,1,.07,9.36,7,7,0,0,1-.81,1h0a1.06,1.06,0,0,1-.15.15h0l-1.94,1.94L45.88,60,38,67.81,37.9,68a5.53,5.53,0,0,0-1.5,3.81,5.6,5.6,0,0,0,9.49,4l5.94-5.94Z"/></svg>