<svg xmlns="http://www.w3.org/2000/svg" viewBox="0 0 48 48"><defs><style>.a{fill:#ff0420;}</style></defs><path class="a" d="M47.22,35.66a2.95,2.95,0,0,1-.07,4.07,3,3,0,0,1-4.13,0L39.9,36.65l-.52-.52L39.25,36a3,3,0,0,0-.25-.25l-.44-.44-.15-.15L38,34.71l-.19-.18L37.3,34h0l-5.81-5.81,0,0L31.25,28l0,0-.33-.34a3.45,3.45,0,0,1-.2-.32,5.75,5.75,0,0,1-1-2.33h0a4.69,4.69,0,0,1-.08-1,5.77,5.77,0,0,1,1.67-4.07l0,0L37.22,14,43,8.23a2.93,2.93,0,0,1,4.22,4l-.08.09-4.06,4.05-3.51,3.52-1,1-.08.07a5.85,5.85,0,0,0-.4.47,4.25,4.25,0,0,0,0,4.92,4.15,4.15,0,0,0,.42.52h0a.3.3,0,0,0,.08.08h0l1,1L43,31.47l4.13,4.12A.46.46,0,0,0,47.22,35.66ZM36.66,39.9l-.52-.52L36,39.25,35.76,39l-.44-.44-.15-.15L34.72,38l-.18-.19-.49-.48v0h0l-5.81-5.81,0,0L28,31.25l0,0-.34-.33-.32-.2a5.75,5.75,0,0,0-2.33-1h0a3.64,3.64,0,0,0-1-.08,5.73,5.73,0,0,0-4.07,1.67l0,0L14,37.22,8.24,43a2.92,2.92,0,0,0,2.07,5,2.88,2.88,0,0,0,2-.78l.09-.07,4-4.06L20,39.57l1-1,.07-.08a5.85,5.85,0,0,1,.47-.4,4.25,4.25,0,0,1,4.92,0,4.15,4.15,0,0,1,.52.42h0l.08.08h0l1,1L31.47,43l4.13,4.13.07.06a2.9,2.9,0,0,0,2,.79,2.93,2.93,0,0,0,2.1-5ZM14,10.78l5.89,5.88,0,0A5.77,5.77,0,0,0,24,18.35a4.69,4.69,0,0,0,1-.08h0a5.75,5.75,0,0,0,2.33-1l.32-.2.34-.33,0,0,.19-.19,0,0L34,10.73h0v0l.49-.48.18-.19.45-.44.15-.15L35.76,9,36,8.75l.13-.13.52-.52L39.77,5a2.93,2.93,0,0,0-2.1-5,2.93,2.93,0,0,0-2,.78L35.6.85,31.47,5,28.05,8.4l-1,1h0a.3.3,0,0,1-.08.08h0a4.37,4.37,0,0,1-3,1.19,4.2,4.2,0,0,1-2.49-.8,5.85,5.85,0,0,1-.47-.4L21,9.43l-1-1L16.43,4.91l-4-4.06L12.29.77a2.92,2.92,0,0,0-2-.77A3,3,0,0,0,8.24.85,2.93,2.93,0,0,0,8.24,5ZM8.62,36.13,8.75,36A3,3,0,0,1,9,35.75l.44-.44.15-.15.44-.45.19-.18L10.7,34h0l5.81-5.81,0,0,.19-.19,0,0,.33-.34a3.45,3.45,0,0,0,.2-.32,5.75,5.75,0,0,0,1-2.33h0a4.69,4.69,0,0,0,.08-1,5.77,5.77,0,0,0-1.67-4.07l0,0L10.78,14,5,8.23a2.93,2.93,0,0,0-4.14,0A3,3,0,0,0,0,10.3a2.92,2.92,0,0,0,.77,2l.08.09,4.06,4.05,3.51,3.52,1,1,.08.07a5.85,5.85,0,0,1,.4.47,4.25,4.25,0,0,1,0,4.92,4.15,4.15,0,0,1-.42.52h0a.3.3,0,0,1-.08.08h0l-1,1L5,31.47.85,35.59l-.07.07a2.95,2.95,0,0,0,.07,4.07,3,3,0,0,0,4.13,0L8.1,36.65Z"/></svg>