<svg xmlns="http://www.w3.org/2000/svg" viewBox="0 0 127.49 27.54"><defs><style>.a,.b{fill:#fff;}.a{stroke:#fff;stroke-miterlimit:10;stroke-width:0.25px;}.c{fill:#ff0420;}</style></defs><path class="a" d="M34.85,4H40a8.32,8.32,0,0,1,1.08,0,2.91,2.91,0,0,1,.73.17,1.11,1.11,0,0,1,.44.28,1.14,1.14,0,0,1,.23.38,2.49,2.49,0,0,1,.08.5c0,.19,0,.39,0,.62s0,.44,0,.64a1.72,1.72,0,0,1-.1.53,1.07,1.07,0,0,1-.28.42,1.37,1.37,0,0,1-.54.31,4.2,4.2,0,0,1-.89.18,12.1,12.1,0,0,1-1.32.06H35.71v2.72h-.86Zm.86,3.43h3.71l1,0A4.6,4.6,0,0,0,41,7.36a.88.88,0,0,0,.39-.15.52.52,0,0,0,.2-.26,1.07,1.07,0,0,0,.08-.38c0-.16,0-.33,0-.54s0-.36,0-.5a1,1,0,0,0-.08-.36.47.47,0,0,0-.2-.22A1.24,1.24,0,0,0,41,4.81a5,5,0,0,0-.65-.06H35.71Z"/><path class="a" d="M48.47,4h.86v6.86h-.86Z"/><path class="a" d="M56.29,10.89h-.85V4h1.5l6.29,6V4h.86v6.86H62.94L56.29,4.74Z"/><path class="a" d="M70.14,10.89h-.86V4h1.51l6.29,6V4h.85v6.86H76.79L70.14,4.74Z"/><path class="a" d="M89.54,9.32H84.17l-.9,1.57h-1L86.19,4h1.24l3.9,6.86h-.9Zm-.41-.72-2.27-4-2.29,4Z"/><path class="a" d="M102.92,6.17a2.44,2.44,0,0,0-.12-.85.82.82,0,0,0-.38-.47,1.66,1.66,0,0,0-.71-.21c-.29,0-.64,0-1.07,0h-2q-.57,0-1,0a2.17,2.17,0,0,0-.65.14.84.84,0,0,0-.39.29,1.33,1.33,0,0,0-.2.51,4.16,4.16,0,0,0-.07.78c0,.31,0,.68,0,1.11s0,.79,0,1.1a5.23,5.23,0,0,0,.07.78,1.33,1.33,0,0,0,.2.51.85.85,0,0,0,.39.3,2.56,2.56,0,0,0,.65.13c.26,0,.58,0,1,0h2c.33,0,.62,0,.86,0a3.1,3.1,0,0,0,.61-.1,1.17,1.17,0,0,0,.42-.2.83.83,0,0,0,.24-.31,1.47,1.47,0,0,0,.12-.46,5.46,5.46,0,0,0,0-.62h.86a4.46,4.46,0,0,1-.06.77,1.88,1.88,0,0,1-.19.62,1.51,1.51,0,0,1-.36.47,1.79,1.79,0,0,1-.58.32,3.51,3.51,0,0,1-.83.19,9.11,9.11,0,0,1-1.12.06h-2a7,7,0,0,1-1.32-.1,2.74,2.74,0,0,1-.89-.29,1.58,1.58,0,0,1-.54-.48,2.1,2.1,0,0,1-.28-.7,5.61,5.61,0,0,1-.1-.9c0-.33,0-.7,0-1.1s0-.78,0-1.11a5.89,5.89,0,0,1,.1-.9,2,2,0,0,1,.28-.69,1.51,1.51,0,0,1,.54-.49A2.74,2.74,0,0,1,97.31,4a7,7,0,0,1,1.32-.1h2a9.11,9.11,0,0,1,1.12.06,3.51,3.51,0,0,1,.83.19,1.77,1.77,0,0,1,.58.31,1.39,1.39,0,0,1,.36.44,1.74,1.74,0,0,1,.19.57,4,4,0,0,1,.06.72Z"/><path class="a" d="M108.86,10.89V4h.86v6.14h5.43v.72Z"/><path class="a" d="M119,10.89V4h6.87v.71h-6V7h5.72v.71H119.9v2.43h6v.72Z"/><path class="b" d="M43.1,15c.2,0,.3.09.3.28v1.23c0,.2-.1.29-.3.29H37.44c-1.35,0-1.72.4-1.72,1.76v.13H43a.24.24,0,0,1,.28.28v1a.24.24,0,0,1-.28.28H35.72v.22c0,1.36.37,1.76,1.72,1.76H43.1c.2,0,.3.09.3.29v1.23c0,.19-.1.28-.3.28H37.4c-2.62,0-3.63-.93-3.63-3.42V18.37c0-2.49,1-3.42,3.63-3.42Z"/><path class="b" d="M55.63,15c.23,0,.24.22.13.33l-4,4,4.16,4.37c.11.11.1.33-.13.33H54a.45.45,0,0,1-.41-.18l-3.2-3.35-3.21,3.35a.48.48,0,0,1-.43.18H45.09c-.22,0-.23-.22-.11-.33l4.26-4.43-3.85-4c-.1-.11-.1-.33.13-.33H47.3a.47.47,0,0,1,.41.18l2.82,3,3-3a.47.47,0,0,1,.41-.18Z"/><path class="b" d="M65.07,15c2,0,2.78.92,2.78,2.66v1c0,1.75-.8,2.67-2.78,2.67H59.71v2.49c0,.19-.1.28-.29.28H58c-.19,0-.3-.09-.3-.28v-8.4a.34.34,0,0,1,.39-.38Zm-5.36,4.58h5c.88,0,1.2-.37,1.2-1.15v-.49c0-.78-.32-1.16-1.2-1.16h-4.8c-.11,0-.16,0-.16.16Z"/><path class="b" d="M71.45,15c.2,0,.29.09.29.28V20.4c0,1.37.39,1.77,1.72,1.77h5.25c.19,0,.28.09.28.29v1.27a.24.24,0,0,1-.28.28H73.38c-2.61,0-3.62-.93-3.62-3.42V15.23c0-.19.1-.28.29-.28Z"/><path class="b" d="M87.69,15c2.63,0,3.62.93,3.62,3.42v2.22c0,2.49-1,3.42-3.62,3.42h-4c-2.61,0-3.63-.93-3.63-3.42V18.37c0-2.49,1-3.42,3.63-3.42ZM82,20.45c0,1.36.39,1.76,1.72,1.76h3.85c1.33,0,1.72-.4,1.72-1.76V18.51c0-1.36-.39-1.76-1.72-1.76H83.76c-1.33,0-1.72.4-1.72,1.76Z"/><path class="b" d="M100.59,15c2,0,2.78.92,2.78,2.66v.74c0,1.48-.57,2.35-1.93,2.59l2.22,2.75a.2.2,0,0,1-.17.32h-1.67c-.22,0-.29-.05-.37-.16l-2-2.7H95.22v2.58a.24.24,0,0,1-.28.28h-1.4c-.2,0-.3-.09-.3-.28v-8.4a.34.34,0,0,1,.39-.38Zm-5.37,4.62h5c.89,0,1.21-.38,1.21-1.15v-.55c0-.77-.32-1.15-1.21-1.15H95.39c-.12,0-.17.05-.17.16Z"/><path class="b" d="M114.6,15c.2,0,.3.09.3.28v1.23c0,.2-.1.29-.3.29h-5.66c-1.35,0-1.72.4-1.72,1.76v.13h7.32a.24.24,0,0,1,.28.28v1a.24.24,0,0,1-.28.28h-7.32v.22c0,1.36.37,1.76,1.72,1.76h5.66c.2,0,.3.09.3.29v1.23c0,.19-.1.28-.3.28h-5.7c-2.62,0-3.63-.93-3.63-3.42V18.37c0-2.49,1-3.42,3.63-3.42Z"/><path class="b" d="M124.38,15c2,0,2.79.92,2.79,2.66v.74c0,1.48-.57,2.35-1.93,2.59l2.21,2.75a.19.19,0,0,1-.17.32h-1.67c-.22,0-.28-.05-.36-.16l-2-2.7H119v2.58c0,.19-.09.28-.29.28h-1.4c-.19,0-.29-.09-.29-.28v-8.4a.33.33,0,0,1,.38-.38ZM119,19.57h5c.88,0,1.2-.38,1.2-1.15v-.55c0-.77-.32-1.15-1.2-1.15h-4.79c-.12,0-.17.05-.17.16Z"/><path class="c" d="M27.09,20.39a1.62,1.62,0,0,1,.45,1.13,1.64,1.64,0,0,1-.48,1.17,1.7,1.7,0,0,1-2.35,0L22.94,21l-.29-.3-.07-.07-.15-.14-.25-.25-.08-.09-.25-.25a1.14,1.14,0,0,1-.11-.11c-.16-.16-.27-.26-.27-.27h0l-3.29-3.3h0L18,16h0l-.19-.19-.11-.18a3.41,3.41,0,0,1-.55-1.33h0a2.56,2.56,0,0,1-.05-.55,3.3,3.3,0,0,1,.95-2.31v0L21.42,8.1l3.29-3.28a1.66,1.66,0,0,1,2.39,2.3l0,0-2.31,2.3-2,2-.57.58-.05,0a2,2,0,0,0-.22.27,2.39,2.39,0,0,0,0,2.79,2.17,2.17,0,0,0,.24.29h0l.05.05h0l.58.58,1.95,2,2.34,2.34ZM21,22.94l-.29-.29-.07-.08-.15-.14-.25-.25-.08-.08-.25-.25-.11-.11-.28-.28h0l-3.29-3.3h0L16,18h0l-.19-.19-.18-.11a3.43,3.43,0,0,0-1.32-.55h0a2.65,2.65,0,0,0-.56-.05,3.32,3.32,0,0,0-2.31.95h0L8.11,21.42,4.82,24.71A1.66,1.66,0,0,0,6,27.54a1.69,1.69,0,0,0,1.13-.44l0-.05,2.3-2.3,2-2,.57-.57,0-.05.27-.22a2.4,2.4,0,0,1,1.41-.46,2.34,2.34,0,0,1,1.38.44,1.76,1.76,0,0,1,.3.24h0l.05.05h0l.58.58L18,24.71l2.34,2.34,0,0a1.66,1.66,0,0,0,1.14.45,1.63,1.63,0,0,0,1.17-.49,1.68,1.68,0,0,0,0-2.34ZM8.11,6.12l3.34,3.34h0a3.32,3.32,0,0,0,2.31.95,2.65,2.65,0,0,0,.56-.05h0a3.43,3.43,0,0,0,1.32-.55l.18-.11L16,9.52h0l.11-.11,0,0,3.29-3.29h0l.28-.27.11-.11.25-.25.08-.08.25-.25L20.59,5l.07-.07L21,4.6l1.77-1.77a1.69,1.69,0,0,0,0-2.35,1.67,1.67,0,0,0-2.31,0l0,0L18,2.82,16.07,4.77l-.58.58h0l-.05.05h0a1.76,1.76,0,0,1-.3.24,2.34,2.34,0,0,1-1.38.44,2.4,2.4,0,0,1-1.41-.46,2.76,2.76,0,0,1-.27-.23l0,0-.57-.57-2-2L7.17.48l0,0a1.68,1.68,0,0,0-2.31,0,1.68,1.68,0,0,0,0,2.35ZM4.89,20.65,5,20.58l.15-.14.25-.25.08-.09.25-.25a1.14,1.14,0,0,0,.11-.11c.16-.16.27-.26.27-.27h0l3.29-3.3h0L9.51,16h0l.19-.19.11-.18a3.41,3.41,0,0,0,.55-1.33h0a2.56,2.56,0,0,0,.05-.55,3.3,3.3,0,0,0-.95-2.31v0L6.12,8.1,2.83,4.82A1.66,1.66,0,0,0,.44,7.12l0,0,2.31,2.3,2,2,.57.58,0,0a1.49,1.49,0,0,1,.23.27,2.39,2.39,0,0,1,0,2.79,2.17,2.17,0,0,1-.24.29h0l-.05.05h0l-.58.58L2.82,18,.48,20.35l0,0A1.62,1.62,0,0,0,0,21.52a1.64,1.64,0,0,0,.48,1.17,1.7,1.7,0,0,0,2.35,0L4.6,21Z"/></svg>