<svg xmlns="http://www.w3.org/2000/svg" viewBox="0 0 96.94 88.71"><defs><style>.a{fill:#ff0420;}</style></defs><path d="M1.42,67.82H6a8.44,8.44,0,0,1,1,.05A3.38,3.38,0,0,1,7.6,68a1.19,1.19,0,0,1,.4.25,1.05,1.05,0,0,1,.2.34,2,2,0,0,1,.07.45c0,.16,0,.34,0,.54s0,.4,0,.57a1.41,1.41,0,0,1-.1.48.91.91,0,0,1-.24.37,1.21,1.21,0,0,1-.48.27,3.53,3.53,0,0,1-.79.16,9.71,9.71,0,0,1-1.18.06H2.18v2.41H1.42Zm.76,3.05H6.34a5.53,5.53,0,0,0,.57-.07.88.88,0,0,0,.35-.14.47.47,0,0,0,.18-.23,1.07,1.07,0,0,0,.07-.34c0-.13,0-.29,0-.48s0-.32,0-.44a1,1,0,0,0-.07-.32.49.49,0,0,0-.18-.2,1.09,1.09,0,0,0-.35-.12c-.15,0-.34,0-.57,0H2.18Z"/><path d="M15,67.82h.76v6.1H15Z"/><path d="M23.73,73.92H23v-6.1h1.34l5.59,5.34V67.82h.76v6.1h-1l-5.91-5.46Z"/><path d="M38.23,73.92h-.76v-6.1h1.34l5.59,5.34V67.82h.76v6.1h-1l-5.92-5.46Z"/><path d="M56.7,72.53H51.93l-.8,1.39h-.88l3.48-6.1h1.09l3.47,6.1h-.8Zm-.36-.64-2-3.56-2,3.56Z"/><path d="M69.81,69.73a2.25,2.25,0,0,0-.1-.76.83.83,0,0,0-.34-.42,1.68,1.68,0,0,0-.63-.18,8.73,8.73,0,0,0-1,0H66c-.34,0-.62,0-.86,0a2,2,0,0,0-.57.12.79.79,0,0,0-.35.26,1.3,1.3,0,0,0-.18.46,3.4,3.4,0,0,0-.06.69c0,.27,0,.6,0,1s0,.71,0,1a4.21,4.21,0,0,0,.07.69,1,1,0,0,0,.17.45.72.72,0,0,0,.35.26,1.73,1.73,0,0,0,.57.12c.24,0,.52,0,.86,0h1.78c.3,0,.55,0,.77,0a2.1,2.1,0,0,0,.55-.09,1,1,0,0,0,.36-.17.74.74,0,0,0,.22-.28,1.17,1.17,0,0,0,.1-.41,4.33,4.33,0,0,0,0-.55h.77a4.86,4.86,0,0,1,0,.69,1.86,1.86,0,0,1-.17.55,1.42,1.42,0,0,1-.32.41,1.72,1.72,0,0,1-.52.29,3.24,3.24,0,0,1-.74.17,9.51,9.51,0,0,1-1,0H66A6.51,6.51,0,0,1,64.82,74a2.53,2.53,0,0,1-.79-.25,1.33,1.33,0,0,1-.47-.44,1.67,1.67,0,0,1-.25-.61,4.76,4.76,0,0,1-.09-.8c0-.3,0-.63,0-1s0-.69,0-1a4.65,4.65,0,0,1,.09-.8,1.72,1.72,0,0,1,.25-.62A1.4,1.4,0,0,1,64,68a2.53,2.53,0,0,1,.79-.26A6.62,6.62,0,0,1,66,67.7h1.78a7.4,7.4,0,0,1,1,0,3.94,3.94,0,0,1,.74.16,2,2,0,0,1,.52.28,1.34,1.34,0,0,1,.32.39,1.61,1.61,0,0,1,.17.51,4.26,4.26,0,0,1,0,.64Z"/><path d="M77.54,73.92v-6.1h.76v5.47h4.83v.63Z"/><path d="M88.62,73.92v-6.1h6.1v.64H89.38v2h5.08v.64H89.38v2.16h5.34v.63Z"/><path d="M9.65,79.33c.2,0,.3.09.3.29v1.27a.26.26,0,0,1-.3.3H3.79C2.4,81.19,2,81.6,2,83v.14H9.58c.2,0,.29.09.29.29V84.5c0,.2-.09.29-.29.29H2V85c0,1.41.39,1.82,1.78,1.82H9.65a.27.27,0,0,1,.3.3v1.27a.27.27,0,0,1-.3.3H3.75C1,88.71,0,87.74,0,85.17V82.86c0-2.57,1-3.53,3.75-3.53Z"/><path d="M22.6,79.33c.24,0,.26.22.14.35l-4.12,4.16,4.3,4.52c.12.12.11.35-.13.35H21a.46.46,0,0,1-.42-.19l-3.31-3.47-3.33,3.47a.5.5,0,0,1-.44.19H11.71c-.23,0-.24-.23-.12-.35L16,83.77l-4-4.09c-.11-.13-.11-.35.13-.35H14a.51.51,0,0,1,.43.18l2.92,3.11,3.09-3.11a.51.51,0,0,1,.43-.18Z"/><path d="M32.37,79.33c2.05,0,2.88,1,2.88,2.76v1c0,1.81-.83,2.76-2.88,2.76H26.82v2.57c0,.2-.09.3-.29.3H25.08a.27.27,0,0,1-.31-.3V79.73a.35.35,0,0,1,.4-.4Zm-5.55,4.74H32c.92,0,1.25-.39,1.25-1.19v-.51c0-.81-.33-1.19-1.25-1.19H27c-.12,0-.18,0-.18.16Z"/><path d="M39,79.33c.21,0,.3.09.3.29V85c0,1.42.4,1.83,1.78,1.83h5.43c.2,0,.29.1.29.3v1.31c0,.2-.09.3-.29.3H41c-2.71,0-3.75-1-3.75-3.54V79.62c0-.2.11-.29.31-.29Z"/><path d="M55.76,79.33c2.72,0,3.75,1,3.75,3.53v2.31c0,2.57-1,3.54-3.75,3.54H51.62c-2.7,0-3.75-1-3.75-3.54V82.86c0-2.57,1.05-3.53,3.75-3.53ZM49.92,85c0,1.41.4,1.82,1.78,1.82h4c1.38,0,1.78-.41,1.78-1.82V83c0-1.41-.4-1.82-1.78-1.82h-4c-1.38,0-1.78.41-1.78,1.82Z"/><path d="M69.11,79.33c2,0,2.88,1,2.88,2.76v.76c0,1.53-.59,2.43-2,2.68l2.29,2.84a.21.21,0,0,1-.17.34H70.38a.37.37,0,0,1-.38-.18l-2.11-2.79H63.56v2.67c0,.2-.09.3-.29.3H61.82a.27.27,0,0,1-.31-.3V79.73a.35.35,0,0,1,.4-.4Zm-5.55,4.78h5.13c.91,0,1.25-.39,1.25-1.19v-.57c0-.8-.34-1.19-1.25-1.19h-5c-.12,0-.17.06-.17.16Z"/><path d="M83.6,79.33c.2,0,.31.09.31.29v1.27c0,.21-.11.3-.31.3H77.75C76.36,81.19,76,81.6,76,83v.14h7.57c.2,0,.29.09.29.29V84.5c0,.2-.09.29-.29.29H76V85c0,1.41.39,1.82,1.78,1.82H83.6a.27.27,0,0,1,.31.3v1.27a.27.27,0,0,1-.31.3H77.71c-2.71,0-3.75-1-3.75-3.54V82.86c0-2.57,1-3.53,3.75-3.53Z"/><path d="M93.72,79.33c2,0,2.88,1,2.88,2.76v.76c0,1.53-.59,2.43-2,2.68l2.29,2.84a.21.21,0,0,1-.17.34H95a.35.35,0,0,1-.37-.18L92.5,85.74H88.17v2.67c0,.2-.09.3-.29.3H86.43a.27.27,0,0,1-.31-.3V79.73a.35.35,0,0,1,.4-.4Zm-5.55,4.78H93.3c.91,0,1.25-.39,1.25-1.19v-.57c0-.8-.34-1.19-1.25-1.19h-5c-.12,0-.18.06-.18.16Z"/><path class="a" d="M74.82,40.23a3.32,3.32,0,0,1-.08,4.59,3.35,3.35,0,0,1-4.66,0l-3.51-3.51L66,40.76l-.15-.15c-.09-.09-.18-.19-.28-.28l-.49-.5-.18-.17-.49-.5L64.17,39l-.54-.55h0l-6.55-6.55,0,0-.23-.23,0,0-.37-.37c-.08-.12-.16-.24-.23-.37A6.4,6.4,0,0,1,55.1,28.2v0A5.2,5.2,0,0,1,55,27.07a6.53,6.53,0,0,1,1.88-4.59l0,0,6.65-6.64,6.52-6.53a3.3,3.3,0,0,1,4.76,4.58l-.09.09-4.58,4.58-4,4-1.14,1.14-.08.08a4.6,4.6,0,0,0-.45.54,4.76,4.76,0,0,0,0,5.54,3.87,3.87,0,0,0,.48.59h0l.1.09h0l1.15,1.15,3.87,3.87,4.65,4.65ZM62.91,45l-.59-.59-.14-.15L61.89,44l-.49-.5-.17-.17-.5-.5a2.08,2.08,0,0,1-.21-.21c-.34-.32-.54-.53-.55-.54l0,0h0L53.39,35.5l0,0-.22-.22,0,0-.37-.37-.36-.23a6.59,6.59,0,0,0-2.63-1.09h0a4.58,4.58,0,0,0-1.1-.09A6.53,6.53,0,0,0,44,35.33l0,0L37.37,42l-6.52,6.53a3.3,3.3,0,0,0,4.57,4.76l.09-.09,4.58-4.58,4-4,1.14-1.14.08-.08a4.69,4.69,0,0,1,.54-.46,4.82,4.82,0,0,1,5.55,0,6.71,6.71,0,0,1,.58.48h0l.09.09h0l1.15,1.15,3.86,3.87,4.65,4.65a.3.3,0,0,1,.08.08,3.32,3.32,0,0,0,4.59-.08,3.35,3.35,0,0,0,0-4.66ZM37.37,12.16,44,18.8l0,0a6.5,6.5,0,0,0,4.6,1.89,5.18,5.18,0,0,0,1.1-.1h0a6.59,6.59,0,0,0,2.63-1.09l.36-.22.37-.38,0,0,.22-.22,0,0L60,12.1h0s.21-.22.55-.55a2.08,2.08,0,0,1,.21-.21l.5-.5.17-.17.49-.5.29-.28.14-.15.59-.58,3.51-3.52a3.35,3.35,0,0,0,0-4.66A3.31,3.31,0,0,0,61.79.89L61.71,1,57.06,5.61,53.2,9.48l-1.15,1.15h0l-.09.09h0a5.27,5.27,0,0,1-.58.48,4.75,4.75,0,0,1-6.09-.5l-.08-.08L44.05,9.5l-4-4L35.51,1,35.42.87a3.3,3.3,0,0,0-4.57,4.76Zm-6.09,28.6.14-.15c.1-.09.19-.19.28-.28l.5-.5.17-.17.5-.5.21-.21.55-.55h0l6.56-6.55,0,0,.22-.23,0,0,.38-.37c.07-.12.15-.24.22-.37a6.55,6.55,0,0,0,1.09-2.62v0a4.64,4.64,0,0,0,.1-1.11,6.49,6.49,0,0,0-1.89-4.59l0,0-6.64-6.64L27.18,9.28a3.3,3.3,0,0,0-5.63,2.34,3.27,3.27,0,0,0,.88,2.24l.08.09,4.58,4.58,4,4,1.13,1.14.09.08a5.85,5.85,0,0,1,.45.54,4.78,4.78,0,0,1,.91,2.8,4.7,4.7,0,0,1-.87,2.74,3.87,3.87,0,0,1-.48.59h0l-.09.09h0L31,31.63,27.17,35.5l-4.66,4.65-.07.08a3.31,3.31,0,0,0,.07,4.59,3.35,3.35,0,0,0,4.66,0l3.52-3.51Z"/></svg>