<svg xmlns="http://www.w3.org/2000/svg" viewBox="0 0 100 100"><defs><style>.a{fill:#ff0420;}</style></defs><path class="a" d="M98.36,74.29a6.1,6.1,0,0,1-.14,8.47,6.17,6.17,0,0,1-8.6.08l-6.49-6.49L82,75.26,81.78,75l-.52-.52-.92-.92L80,73.24l-.92-.92-.39-.39c-.6-.61-1-1-1-1l0,0h0L65.55,58.77l0,0-.41-.41,0,0-.69-.69c-.15-.22-.29-.44-.42-.67a12,12,0,0,1-2-4.85v0a8.44,8.44,0,0,1-.17-2,12,12,0,0,1,3.48-8.48l0,0L77.55,29.19l12-12a6.1,6.1,0,0,1,8.79,8.45c-.06.06-.11.12-.17.17l-8.45,8.45-7.32,7.32-2.1,2.11a1.06,1.06,0,0,0-.15.15,7.86,7.86,0,0,0-.84,1A8.81,8.81,0,0,0,79.28,55a9.29,9.29,0,0,0,.89,1.08h0l.16.17h0l2.12,2.13,7.14,7.13,8.59,8.59Zm-22,8.84L75.29,82,75,81.77c-.18-.17-.35-.34-.52-.52l-.92-.91L73.26,80l-.92-.92L72,78.71c-.61-.61-1-1-1-1l0,0v0L58.79,65.55l0,0-.42-.41,0,0-.69-.69c-.22-.15-.44-.29-.67-.42a12,12,0,0,0-4.85-2h0a8.9,8.9,0,0,0-2-.18,12.06,12.06,0,0,0-8.49,3.48.1.1,0,0,1-.05,0L29.21,77.55l-12,12a6.09,6.09,0,0,0,8.45,8.78,1.29,1.29,0,0,0,.17-.16l8.45-8.45,7.33-7.32,2.1-2.1.15-.16A8.82,8.82,0,0,1,55,79.28a8.37,8.37,0,0,1,1.08.89h0l.17.17h0l2.13,2.12,7.13,7.14,8.59,8.59.15.14a6.1,6.1,0,0,0,8.47-.14,6.17,6.17,0,0,0,.08-8.6ZM29.21,22.45,41.48,34.72l.05,0A12,12,0,0,0,50,38.23a8.36,8.36,0,0,0,2-.17h0a12,12,0,0,0,4.85-2c.23-.13.45-.27.67-.42l.69-.69,0,0,.42-.41,0,0L70.9,22.34h0l0,0,1-1,.39-.39.92-.92.32-.32.92-.92.52-.52.27-.26,1.08-1.09,6.49-6.49a6.17,6.17,0,0,0-.08-8.6,6.1,6.1,0,0,0-8.47-.14l-.15.14-8.59,8.59-7.13,7.14-2.13,2.12h0l-.17.16h0a9.29,9.29,0,0,1-1.08.89,8.81,8.81,0,0,1-10.24-.08,7.86,7.86,0,0,1-1-.84l-.15-.15-2.1-2.1-7.33-7.32L25.78,1.78l-.17-.17a6.1,6.1,0,0,0-8.45,8.79ZM18,75.26l.26-.26.52-.52.92-.92.32-.32.92-.92.39-.39c.6-.61,1-1,1-1l0,0h0L34.45,58.77l0,0c.14-.13.28-.27.41-.41l0,0,.69-.69c.15-.22.29-.44.42-.67a12,12,0,0,0,2-4.85v0a8.44,8.44,0,0,0,.17-2,12,12,0,0,0-3.48-8.48l0,0L22.45,29.19l-12-12a6.1,6.1,0,0,0-8.79,8.45c.06.06.11.12.17.17l8.45,8.45,7.32,7.32,2.1,2.11a1.06,1.06,0,0,1,.15.15,7.86,7.86,0,0,1,.84,1A8.81,8.81,0,0,1,20.72,55a9.29,9.29,0,0,1-.89,1.08h0l-.16.17h0l-2.12,2.13-7.14,7.13L1.78,74.14l-.14.15a6.1,6.1,0,0,0,.14,8.47,6.17,6.17,0,0,0,8.6.08l6.49-6.49Z"/></svg>