<svg xmlns="http://www.w3.org/2000/svg" viewBox="0 0 48.57 45.49"><defs><style>.a{fill:#fff;}.b{fill:#ff0420;}</style></defs><path class="a" d="M4.22,34.41a.54.54,0,0,0-.13-.22A.7.7,0,0,0,3.85,34,1.58,1.58,0,0,0,3.49,34l-.49,0H.58v3.3h.63V36H2.74a5.09,5.09,0,0,0,.6,0,1.78,1.78,0,0,0,.42-.09.67.67,0,0,0,.29-.16.63.63,0,0,0,.16-.23,2.33,2.33,0,0,0,0-.28v-.57A1.64,1.64,0,0,0,4.22,34.41Zm-1.48,1H1.21v-1h2a1.7,1.7,0,0,1,.27,0,.32.32,0,0,1,.13,0,.1.1,0,0,1,0,0s0,.06,0,.12v.45a.28.28,0,0,1,0,.13l0,.06a.39.39,0,0,1-.13,0,1,1,0,0,1-.27,0Z"/><rect class="a" x="7.37" y="33.93" width="0.63" height="3.3"/><polygon class="a" points="14.82 36.43 12.24 33.96 12.2 33.93 11.36 33.93 11.36 37.23 11.99 37.23 11.99 34.66 14.77 37.23 15.46 37.23 15.46 33.93 14.82 33.93 14.82 36.43"/><polygon class="a" points="22.07 36.43 19.49 33.96 19.45 33.93 18.61 33.93 18.61 37.23 19.24 37.23 19.24 34.66 22.02 37.23 22.71 37.23 22.71 33.93 22.07 33.93 22.07 36.43"/><path class="a" d="M26.79,33.93l-1.88,3.3h.73l.4-.7h2.24l.39.7h.69l-1.88-3.3Zm-.43,2,.8-1.4L28,36Z"/><path class="a" d="M35.29,34.37a.83.83,0,0,0-.19-.23.86.86,0,0,0-.3-.16,1.87,1.87,0,0,0-.39-.09,3.94,3.94,0,0,0-.52,0H33a3.49,3.49,0,0,0-.61,0,1.36,1.36,0,0,0-.43.14.81.81,0,0,0-.29.26,1.22,1.22,0,0,0-.14.35,2.68,2.68,0,0,0-.05.42v1a2.82,2.82,0,0,0,.05.43,1.16,1.16,0,0,0,.14.34.73.73,0,0,0,.29.26,1.34,1.34,0,0,0,.43.15,3.59,3.59,0,0,0,.61,0h.89a3.94,3.94,0,0,0,.52,0,1.87,1.87,0,0,0,.39-.09.86.86,0,0,0,.3-.16.92.92,0,0,0,.19-.25,1,1,0,0,0,.1-.31c0-.11,0-.23,0-.36V36h-.63v.13a2.17,2.17,0,0,1,0,.26.38.38,0,0,1-.05.16.23.23,0,0,1-.07.1.37.37,0,0,1-.14.06l-.24,0H32.58a1.22,1.22,0,0,1-.25-.05.29.29,0,0,1-.18-.27,1.55,1.55,0,0,1,0-.33c0-.13,0-.29,0-.48v-.49q0-.2,0-.33a.54.54,0,0,1,.07-.17.27.27,0,0,1,.12-.09.79.79,0,0,1,.25,0l.42,0h.89l.47,0a.74.74,0,0,1,.26.07.44.44,0,0,1,.12.15,1,1,0,0,1,0,.34v.12h.63V35a3.28,3.28,0,0,0,0-.34A1,1,0,0,0,35.29,34.37Z"/><polygon class="a" points="39.27 33.93 38.64 33.93 38.64 37.23 41.69 37.23 41.69 36.66 39.27 36.66 39.27 33.93"/><polygon class="a" points="47.48 34.49 47.48 33.93 44.18 33.93 44.18 37.23 47.48 37.23 47.48 36.66 44.81 36.66 44.81 35.83 47.36 35.83 47.36 35.26 44.81 35.26 44.81 34.49 47.48 34.49"/><path class="a" d="M4.82,40.8A.14.14,0,0,1,5,41v.64c0,.1-.06.14-.16.14H1.9c-.7,0-.9.21-.9.92v.06H4.79a.13.13,0,0,1,.15.15v.53a.13.13,0,0,1-.15.15H1v.11c0,.7.2.91.9.91H4.82a.14.14,0,0,1,.16.15v.63c0,.11-.06.15-.16.15H1.88C.52,45.49,0,45,0,43.72V42.57c0-1.28.52-1.77,1.88-1.77Z"/><path class="a" d="M11.3,40.8a.1.1,0,0,1,.07.18L9.31,43.06l2.15,2.26c.06.06.06.17-.07.17h-.91a.24.24,0,0,1-.22-.09L8.61,43.66,7,45.4a.24.24,0,0,1-.22.09H5.86c-.12,0-.13-.11-.07-.17L8,43,6,41c0-.06,0-.18.07-.18H7a.27.27,0,0,1,.22.1l1.46,1.55,1.55-1.55a.24.24,0,0,1,.21-.1Z"/><path class="a" d="M16.18,40.8c1,0,1.44.48,1.44,1.38v.5c0,.9-.41,1.38-1.44,1.38H13.41v1.28c0,.11-.05.15-.15.15h-.72c-.1,0-.15,0-.15-.15V41a.18.18,0,0,1,.2-.2Zm-2.77,2.38H16c.45,0,.62-.2.62-.6v-.26c0-.4-.17-.59-.62-.59H13.5c-.06,0-.09,0-.09.08Z"/><path class="a" d="M19.49,40.8c.1,0,.14.05.14.15v2.67c0,.71.2.92.9.92h2.71a.13.13,0,0,1,.15.15v.65c0,.11-.05.15-.15.15H20.49c-1.36,0-1.88-.48-1.88-1.77V41a.13.13,0,0,1,.15-.15Z"/><path class="a" d="M27.71,40.8c1.36,0,1.88.49,1.88,1.77v1.15c0,1.29-.52,1.77-1.88,1.77H25.64c-1.35,0-1.87-.48-1.87-1.77V42.57c0-1.28.52-1.77,1.87-1.77Zm-2.92,2.85c0,.7.2.91.89.91h2c.69,0,.89-.21.89-.91v-1c0-.71-.2-.92-.89-.92h-2c-.69,0-.89.21-.89.92Z"/><path class="a" d="M34.39,40.8c1,0,1.44.48,1.44,1.38v.38c0,.77-.3,1.22-1,1.34L36,45.33a.1.1,0,0,1-.08.16H35a.19.19,0,0,1-.19-.08l-1-1.4H31.61v1.33c0,.11,0,.15-.15.15h-.72c-.1,0-.15,0-.15-.15V41a.18.18,0,0,1,.2-.2Zm-2.78,2.39h2.57c.45,0,.62-.19.62-.59v-.28c0-.4-.17-.6-.62-.6H31.7c-.06,0-.09,0-.09.08Z"/><path class="a" d="M41.77,40.8a.13.13,0,0,1,.15.15v.64c0,.1-.05.14-.15.14H38.84c-.7,0-.89.21-.89.92v.06h3.78a.13.13,0,0,1,.15.15v.53a.13.13,0,0,1-.15.15H38v.11c0,.7.19.91.89.91h2.93a.13.13,0,0,1,.15.15v.63c0,.11-.05.15-.15.15h-3C37.47,45.49,37,45,37,43.72V42.57c0-1.28.52-1.77,1.87-1.77Z"/><path class="a" d="M47,40.8c1,0,1.44.48,1.44,1.38v.38c0,.77-.29,1.22-1,1.34l1.15,1.43a.1.1,0,0,1-.09.16H47.6c-.12,0-.15,0-.19-.08L46.35,44H44.19v1.33c0,.11,0,.15-.15.15h-.72c-.1,0-.16,0-.16-.15V41a.18.18,0,0,1,.2-.2Zm-2.77,2.39h2.56c.46,0,.63-.19.63-.59v-.28c0-.4-.17-.6-.63-.6H44.27c-.06,0-.08,0-.08.08Z"/><path class="b" d="M37.67,20.26a1.66,1.66,0,0,1,0,2.29,1.68,1.68,0,0,1-2.33,0l-1.76-1.76-.29-.29-.07-.07L33,20.31l-.25-.25L32.7,20l-.25-.25-.1-.1-.28-.28h0l-3.28-3.28h0l-.11-.11h0l-.19-.19a1.74,1.74,0,0,0-.11-.18,3.17,3.17,0,0,1-.54-1.31h0a2.09,2.09,0,0,1,0-.55,3.27,3.27,0,0,1,.94-2.3h0L32,8,35.3,4.78a1.65,1.65,0,0,1,2.38,2.29s0,0,0,0L35.34,9.4l-2,2-.57.56,0,.05a2.85,2.85,0,0,0-.23.26,2.44,2.44,0,0,0-.45,1.41A2.4,2.4,0,0,0,32.5,15a2.17,2.17,0,0,0,.24.29h0l0,.05h0l.57.58,1.93,1.93,2.33,2.32Zm-6.22,2.53-.29-.3-.07-.07L31,22.28,30.7,22,30.61,22l-.25-.25-.1-.11L30,21.32h0L26.69,18h0l-.11-.11v0l-.19-.18-.18-.12a3.17,3.17,0,0,0-1.31-.54h0a2.62,2.62,0,0,0-.55-.05A3.23,3.23,0,0,0,22,18h0l-3.33,3.32-3.26,3.26a1.65,1.65,0,0,0,2.29,2.38l.05-.05L20,24.59l2-2L22.6,22l0,0a2,2,0,0,1,.27-.22,2.36,2.36,0,0,1,2.77,0A2.17,2.17,0,0,1,26,22h0L26,22h0l.58.57,1.93,1.94,2.33,2.32,0,0a1.61,1.61,0,0,0,1.12.45,1.66,1.66,0,0,0,1.19-2.81ZM18.68,6.08,22,9.4h0a3.27,3.27,0,0,0,2.3.94,2.59,2.59,0,0,0,.55,0h0a3.17,3.17,0,0,0,1.31-.54l.18-.11.19-.19h0l.11-.11h0L30,6.05h0l.28-.28.1-.1.25-.25.09-.09L31,5.08l.14-.15.07-.07.29-.29,1.76-1.76a1.68,1.68,0,0,0,0-2.33,1.66,1.66,0,0,0-2.29,0l0,0L28.53,2.81,26.6,4.74,26,5.32h0l-.05,0h0a2.17,2.17,0,0,1-.29.24A2.4,2.4,0,0,1,24.31,6a2.32,2.32,0,0,1-1.4-.45,2,2,0,0,1-.27-.23.08.08,0,0,1,0,0L22,4.75l-2-2L17.76.48l-.05,0a1.65,1.65,0,0,0-2.29,2.37Zm-3.3,14.44.07-.07.14-.14.25-.25.08-.09.25-.25.11-.1.27-.28h0l3.28-3.28h0a.57.57,0,0,0,.11-.11h0l.19-.19a1.74,1.74,0,0,0,.11-.18,3.19,3.19,0,0,0,.55-1.31h0a2.62,2.62,0,0,0,.05-.55,3.23,3.23,0,0,0-.95-2.3h0L16.59,8,13.33,4.78A1.65,1.65,0,0,0,11,7.07s0,0,.05,0L13.28,9.4l2,2,.57.56,0,.05a2.75,2.75,0,0,1,.22.26,2.38,2.38,0,0,1,.46,1.41A2.33,2.33,0,0,1,16.12,15a2.17,2.17,0,0,1-.24.29h0l-.05.05h0l-.58.58-1.93,1.93L11,20.21l0,.05a1.61,1.61,0,0,0-.45,1.12,1.66,1.66,0,0,0,2.81,1.19l1.76-1.76Z"/></svg>