<svg xmlns="http://www.w3.org/2000/svg" viewBox="0 0 48.5 45.49"><defs><style>.a{fill:#ff0420;}</style></defs><path d="M4.22,34.41a.54.54,0,0,0-.13-.22A.72.72,0,0,0,3.85,34,2.45,2.45,0,0,0,3.49,34l-.49,0H.58v3.3h.63V36H2.74a5.09,5.09,0,0,0,.6,0,1.78,1.78,0,0,0,.42-.09.67.67,0,0,0,.29-.16.73.73,0,0,0,.16-.23,2.33,2.33,0,0,0,0-.28v-.57A1.64,1.64,0,0,0,4.22,34.41Zm-1.48,1H1.21v-1h2a1,1,0,0,1,.27,0,.32.32,0,0,1,.13,0,.1.1,0,0,1,0,0s0,.06,0,.12v.44a.29.29,0,0,1,0,.14l0,.06a.39.39,0,0,1-.13,0,1,1,0,0,1-.27,0Z"/><rect x="7.37" y="33.93" width="0.63" height="3.3"/><polygon points="14.82 36.43 12.24 33.96 12.2 33.93 11.36 33.93 11.36 37.23 11.99 37.23 11.99 34.66 14.77 37.23 15.46 37.23 15.46 33.93 14.82 33.93 14.82 36.43"/><polygon points="22.07 36.43 19.49 33.96 19.45 33.93 18.61 33.93 18.61 37.23 19.24 37.23 19.24 34.66 22.02 37.23 22.71 37.23 22.71 33.93 22.07 33.93 22.07 36.43"/><path d="M26.79,33.93l-1.88,3.3h.73l.4-.7h2.24l.39.7h.69l-1.88-3.3Zm-.43,2,.8-1.4L28,36Z"/><path d="M35.29,34.37a.71.71,0,0,0-.19-.23.86.86,0,0,0-.3-.16,1.87,1.87,0,0,0-.39-.09,3.94,3.94,0,0,0-.52,0H33a3.49,3.49,0,0,0-.61,0,1.14,1.14,0,0,0-.43.14.81.81,0,0,0-.29.26,1.22,1.22,0,0,0-.14.35,2.68,2.68,0,0,0-.05.42v1a2.55,2.55,0,0,0,.05.42,1.11,1.11,0,0,0,.14.35.81.81,0,0,0,.29.26,1.14,1.14,0,0,0,.43.14,2.73,2.73,0,0,0,.61,0h.89a3.94,3.94,0,0,0,.52,0,1.87,1.87,0,0,0,.39-.09,1.06,1.06,0,0,0,.3-.16.92.92,0,0,0,.19-.25,1,1,0,0,0,.1-.31c0-.11,0-.23,0-.37V36h-.63v.12a2.26,2.26,0,0,1,0,.27.38.38,0,0,1-.05.16.23.23,0,0,1-.07.1l-.14.06-.24,0H32.58a.76.76,0,0,1-.25-.06.25.25,0,0,1-.12-.08.38.38,0,0,1-.06-.18,1.55,1.55,0,0,1,0-.33c0-.13,0-.29,0-.48v-.49q0-.2,0-.33a.75.75,0,0,1,.07-.18.36.36,0,0,1,.12-.08.76.76,0,0,1,.25-.06h1.31l.47,0a.74.74,0,0,1,.26.07.44.44,0,0,1,.12.15,1,1,0,0,1,0,.33v.13h.63V35a3.25,3.25,0,0,0,0-.33A1,1,0,0,0,35.29,34.37Z"/><polygon points="39.27 33.93 38.64 33.93 38.64 37.23 41.69 37.23 41.69 36.66 39.27 36.66 39.27 33.93"/><polygon points="47.48 34.49 47.48 33.93 44.18 33.93 44.18 37.23 47.48 37.23 47.48 36.66 44.81 36.66 44.81 35.83 47.36 35.83 47.36 35.26 44.81 35.26 44.81 34.49 47.48 34.49"/><path d="M4.82,40.8A.14.14,0,0,1,5,41v.64c0,.1-.06.14-.16.14H1.9c-.7,0-.9.21-.9.92v.06H4.79a.13.13,0,0,1,.15.15v.53a.13.13,0,0,1-.15.15H1v.11c0,.7.2.91.9.91H4.82a.14.14,0,0,1,.16.15v.63a.14.14,0,0,1-.16.15H1.88C.52,45.49,0,45,0,43.72V42.57c0-1.29.52-1.77,1.88-1.77Z"/><path d="M11.3,40.8a.1.1,0,0,1,.07.18L9.31,43.06l2.15,2.26c.06.06.06.17-.07.17h-.91a.24.24,0,0,1-.22-.09L8.61,43.66,7,45.4a.24.24,0,0,1-.22.09H5.86c-.12,0-.13-.11-.07-.17L8,43,6,41c0-.06,0-.18.07-.18H7a.27.27,0,0,1,.22.1l1.46,1.55,1.55-1.55a.24.24,0,0,1,.21-.1Z"/><path d="M16.18,40.8c1,0,1.44.48,1.44,1.38v.5c0,.9-.41,1.38-1.44,1.38H13.41v1.28a.13.13,0,0,1-.15.15h-.72a.13.13,0,0,1-.15-.15V41a.18.18,0,0,1,.2-.2Zm-2.77,2.37H16c.45,0,.62-.19.62-.59v-.26c0-.4-.17-.59-.62-.59H13.5c-.06,0-.09,0-.09.08Z"/><path d="M19.35,40.8a.13.13,0,0,1,.15.15v2.67c0,.71.2.92.89.92H23.1c.11,0,.15.05.15.15v.65c0,.1,0,.15-.15.15H20.35c-1.35,0-1.87-.48-1.87-1.77V41a.13.13,0,0,1,.15-.15Z"/><path d="M27.65,40.8c1.36,0,1.87.48,1.87,1.77v1.15c0,1.29-.51,1.77-1.87,1.77H25.58c-1.36,0-1.88-.48-1.88-1.77V42.57c0-1.29.52-1.77,1.88-1.77Zm-2.92,2.85c0,.7.2.91.89.91h2c.69,0,.89-.21.89-.91v-1c0-.71-.2-.92-.89-.92h-2c-.69,0-.89.21-.89.92Z"/><path d="M34.32,40.8c1,0,1.44.48,1.44,1.38v.38c0,.77-.3,1.22-1,1.34l1.15,1.42a.11.11,0,0,1-.09.17H35c-.12,0-.15,0-.19-.09L33.71,44H31.54v1.33c0,.1,0,.15-.14.15h-.73a.13.13,0,0,1-.15-.15V41a.18.18,0,0,1,.2-.2Zm-2.78,2.39h2.57c.46,0,.62-.19.62-.59v-.28c0-.41-.16-.6-.62-.6H31.63c-.06,0-.09,0-.09.08Z"/><path d="M41.7,40.8a.13.13,0,0,1,.15.15v.64c0,.1-.05.14-.15.14H38.77c-.69,0-.89.21-.89.92v.06h3.79c.1,0,.14,0,.14.15v.53c0,.1,0,.15-.14.15H37.88v.11c0,.7.2.91.89.91H41.7a.13.13,0,0,1,.15.15v.63a.13.13,0,0,1-.15.15h-3c-1.35,0-1.87-.48-1.87-1.77V42.57c0-1.29.52-1.77,1.87-1.77Z"/><path d="M46.89,40.8c1,0,1.44.48,1.44,1.38v.38c0,.77-.29,1.22-1,1.34l1.15,1.42a.11.11,0,0,1-.09.17h-.86c-.11,0-.15,0-.19-.09L46.28,44H44.12v1.33a.13.13,0,0,1-.15.15h-.72a.14.14,0,0,1-.16-.15V41a.18.18,0,0,1,.2-.2Zm-2.77,2.39h2.56c.46,0,.63-.19.63-.59v-.28c0-.41-.17-.6-.63-.6H44.21c-.06,0-.09,0-.09.08Z"/><path class="a" d="M37.55,20.26a1.66,1.66,0,0,1,0,2.29,1.68,1.68,0,0,1-2.33,0l-1.76-1.76-.29-.29-.07-.07-.14-.14-.25-.25L32.58,20l-.25-.25-.1-.1L32,19.34h0l-3.28-3.28h0a1.14,1.14,0,0,1-.11-.11h0l-.19-.19-.11-.18a3.17,3.17,0,0,1-.54-1.31h0a2.59,2.59,0,0,1,0-.55,3.27,3.27,0,0,1,.94-2.3h0L31.91,8l3.27-3.26a1.65,1.65,0,0,1,2.37,2.29l0,0L35.22,9.4l-2,2-.57.56,0,.05a2.85,2.85,0,0,0-.23.26A2.44,2.44,0,0,0,32,13.67,2.4,2.4,0,0,0,32.38,15a2.17,2.17,0,0,0,.24.29h0l0,.05h0l.57.58,1.93,1.93,2.33,2.32Zm-6.1,2.53-.29-.3-.07-.07L31,22.28,30.7,22,30.61,22l-.25-.25-.1-.11L30,21.32h0L26.69,18h0l-.11-.11v0l-.19-.18-.18-.12a3.17,3.17,0,0,0-1.31-.54h0a2.62,2.62,0,0,0-.55-.05A3.23,3.23,0,0,0,22,18h0l-3.33,3.32-3.26,3.26a1.65,1.65,0,0,0,2.29,2.38l.05-.05L20,24.59l2-2L22.6,22l0,0a2,2,0,0,1,.27-.22,2.36,2.36,0,0,1,2.77,0A2.17,2.17,0,0,1,26,22h0L26,22h0l.58.57,1.93,1.94,2.33,2.32,0,0a1.61,1.61,0,0,0,1.12.45,1.66,1.66,0,0,0,1.19-2.81ZM18.68,6.08,22,9.4h0a3.27,3.27,0,0,0,2.3.94,2.59,2.59,0,0,0,.55,0h0a3.17,3.17,0,0,0,1.31-.54l.18-.11.19-.19h0l.11-.11h0L30,6.05h0l.28-.28.1-.1.25-.25.09-.09L31,5.08l.14-.15.07-.07.29-.29,1.76-1.76a1.68,1.68,0,0,0,0-2.33,1.66,1.66,0,0,0-2.29,0l0,0L28.53,2.81,26.6,4.74,26,5.32h0l-.05,0h0a2.17,2.17,0,0,1-.29.24A2.4,2.4,0,0,1,24.31,6a2.32,2.32,0,0,1-1.4-.45,2,2,0,0,1-.27-.23.08.08,0,0,1,0,0L22,4.75l-2-2L17.76.48l-.05,0a1.65,1.65,0,0,0-2.29,2.37ZM15.5,20.52l.07-.07.14-.14.25-.25L16,20l.25-.25.11-.1c.16-.17.27-.27.27-.28h0L20,16.05h0l.12-.11h0l.18-.19.12-.18a3.17,3.17,0,0,0,.54-1.31h0a2.62,2.62,0,0,0,0-.55,3.27,3.27,0,0,0-.94-2.3h0L16.71,8,13.45,4.78a1.65,1.65,0,0,0-2.38,2.29l0,0L13.41,9.4l2,2L16,12,16,12a2.75,2.75,0,0,1,.22.26,2.38,2.38,0,0,1,.46,1.41A2.33,2.33,0,0,1,16.24,15a2.17,2.17,0,0,1-.24.29h0l-.05.05h0l-.57.58-1.94,1.93-2.32,2.32,0,.05a1.6,1.6,0,0,0-.44,1.12,1.66,1.66,0,0,0,.48,1.17,1.68,1.68,0,0,0,2.33,0l1.75-1.76Z"/></svg>