<svg xmlns="http://www.w3.org/2000/svg" viewBox="0 0 254.69 54.48"><defs><style>.a{fill:#fff;}.b{fill:#ff0420;}</style></defs><path class="a" d="M69.4,7.75H79.71a18.62,18.62,0,0,1,2.16.11,6.33,6.33,0,0,1,1.45.34,2.33,2.33,0,0,1,.88.55,1.91,1.91,0,0,1,.45.78,3.8,3.8,0,0,1,.17,1c0,.37,0,.78,0,1.23s0,.89,0,1.28a3.51,3.51,0,0,1-.21,1.07,2.12,2.12,0,0,1-.55.84,2.89,2.89,0,0,1-1.08.6,8.48,8.48,0,0,1-1.78.37,24.54,24.54,0,0,1-2.65.12H71.12v5.44H69.4Zm1.72,6.86h7.42c.76,0,1.4,0,1.93,0a8.05,8.05,0,0,0,1.29-.14,2,2,0,0,0,.78-.31,1.14,1.14,0,0,0,.41-.51,2.25,2.25,0,0,0,.15-.78c0-.3,0-.66,0-1.07s0-.73,0-1a1.77,1.77,0,0,0-.15-.7,1.07,1.07,0,0,0-.41-.46,2.28,2.28,0,0,0-.78-.26,9.81,9.81,0,0,0-1.29-.12c-.53,0-1.17,0-1.93,0H71.12Z"/><path class="a" d="M96.64,7.75h1.72V21.48H96.64Z"/><path class="a" d="M112.29,21.48h-1.72V7.75h3l12.58,12v-12h1.72V21.48h-2.29l-13.3-12.3Z"/><path class="a" d="M140,21.48h-1.72V7.75h3l12.58,12v-12h1.72V21.48h-2.29L140,9.18Z"/><path class="a" d="M178.77,18.33H168l-1.79,3.15h-2l7.83-13.73h2.46l7.81,13.73h-1.8ZM178,16.9l-4.54-8-4.57,8Z"/><path class="a" d="M205.54,12a5.2,5.2,0,0,0-.23-1.7,1.8,1.8,0,0,0-.77-.94A3.36,3.36,0,0,0,203.13,9c-.58-.05-1.3-.08-2.16-.08h-4q-1.14,0-1.92.06a4.67,4.67,0,0,0-1.3.28,1.73,1.73,0,0,0-.78.58,2.5,2.5,0,0,0-.4,1,9.37,9.37,0,0,0-.15,1.56c0,.62,0,1.36,0,2.21s0,1.6,0,2.22a8.21,8.21,0,0,0,.15,1.55,2.53,2.53,0,0,0,.39,1,1.68,1.68,0,0,0,.78.59,4.67,4.67,0,0,0,1.3.28q.78.06,1.92.06h4c.67,0,1.25,0,1.73,0a6.31,6.31,0,0,0,1.23-.2,2.16,2.16,0,0,0,.82-.39,1.79,1.79,0,0,0,.49-.63,3.17,3.17,0,0,0,.24-.91,11.37,11.37,0,0,0,.06-1.25h1.71a10.44,10.44,0,0,1-.1,1.55,4.28,4.28,0,0,1-.38,1.24,3,3,0,0,1-.73.93,3.72,3.72,0,0,1-1.15.65,7.68,7.68,0,0,1-1.67.37,18.4,18.4,0,0,1-2.25.12h-4a15.26,15.26,0,0,1-2.65-.19,5.65,5.65,0,0,1-1.77-.58,3,3,0,0,1-1.08-1,4.07,4.07,0,0,1-.55-1.38,8.76,8.76,0,0,1-.2-1.8q0-1,0-2.22c0-.81,0-1.54,0-2.21a8.76,8.76,0,0,1,.2-1.8,4.07,4.07,0,0,1,.55-1.38,2.94,2.94,0,0,1,1.08-1,5.65,5.65,0,0,1,1.77-.58A15.26,15.26,0,0,1,197,7.47h4a18.4,18.4,0,0,1,2.25.12,8.36,8.36,0,0,1,1.67.36,3.9,3.9,0,0,1,1.15.62,3,3,0,0,1,.73.89,3.71,3.71,0,0,1,.38,1.15,9,9,0,0,1,.1,1.43Z"/><path class="a" d="M217.43,21.48V7.75h1.72v12.3H230v1.43Z"/><path class="a" d="M237.79,21.48V7.75h13.72V9.18h-12v4.58h11.43v1.43H239.51v4.86h12v1.43Z"/><path class="a" d="M85.9,29.59c.39,0,.6.18.6.57v2.46c0,.39-.21.57-.6.57H74.58c-2.69,0-3.44.81-3.44,3.53V37H85.77a.5.5,0,0,1,.57.57v2a.5.5,0,0,1-.57.57H71.14v.44c0,2.72.75,3.53,3.44,3.53H85.9c.39,0,.6.18.6.57v2.46c0,.39-.21.57-.6.57H74.5c-5.23,0-7.25-1.87-7.25-6.84V36.43c0-5,2-6.84,7.25-6.84Z"/><path class="a" d="M111,29.59c.46,0,.49.44.25.68l-7.95,8.05,8.32,8.74c.23.23.2.67-.26.67h-3.55a.9.9,0,0,1-.83-.36l-6.4-6.71-6.43,6.71a.94.94,0,0,1-.85.36H89.89c-.44,0-.47-.44-.23-.67l8.52-8.87-7.69-7.92c-.21-.24-.21-.68.26-.68H94.3a.94.94,0,0,1,.82.37l5.65,6,6-6a1,1,0,0,1,.83-.37Z"/><path class="a" d="M129.84,29.59c4,0,5.57,1.84,5.57,5.34v1.92c0,3.5-1.61,5.33-5.57,5.33H119.11v5a.5.5,0,0,1-.57.57h-2.8a.51.51,0,0,1-.59-.57V30.37a.69.69,0,0,1,.78-.78Zm-10.73,9.17H129c1.76,0,2.41-.75,2.41-2.3v-1c0-1.55-.65-2.3-2.41-2.3h-9.59c-.23,0-.34.08-.34.31Z"/><path class="a" d="M142.61,29.59a.5.5,0,0,1,.57.57V40.5c0,2.75.78,3.55,3.45,3.55h10.49a.5.5,0,0,1,.57.57v2.54a.5.5,0,0,1-.57.57H146.47c-5.23,0-7.25-1.87-7.25-6.84V30.16c0-.39.2-.57.59-.57Z"/><path class="a" d="M175.07,29.59c5.26,0,7.26,1.87,7.26,6.84v4.46c0,5-2,6.84-7.26,6.84h-8c-5.24,0-7.26-1.87-7.26-6.84V36.43c0-5,2-6.84,7.26-6.84Zm-11.3,11c0,2.72.78,3.53,3.45,3.53h7.7c2.66,0,3.44-.81,3.44-3.53V36.72c0-2.72-.78-3.53-3.44-3.53h-7.7c-2.67,0-3.45.81-3.45,3.53Z"/><path class="a" d="M200.87,29.59c4,0,5.57,1.84,5.57,5.34v1.48c0,3-1.14,4.69-3.86,5.18L207,47.08a.4.4,0,0,1-.33.65h-3.34c-.45,0-.57-.1-.73-.34L198.52,42h-8.37v5.16a.5.5,0,0,1-.57.57h-2.8c-.39,0-.6-.18-.6-.57V30.37a.69.69,0,0,1,.78-.78Zm-10.72,9.25h9.92c1.76,0,2.41-.75,2.41-2.3V35.45c0-1.56-.65-2.31-2.41-2.31h-9.59c-.23,0-.33.11-.33.31Z"/><path class="a" d="M228.9,29.59c.39,0,.6.18.6.57v2.46c0,.39-.21.57-.6.57H217.58c-2.69,0-3.44.81-3.44,3.53V37h14.64a.5.5,0,0,1,.57.57v2a.5.5,0,0,1-.57.57H214.14v.44c0,2.72.75,3.53,3.44,3.53H228.9c.39,0,.6.18.6.57v2.46c0,.39-.21.57-.6.57H217.51c-5.24,0-7.26-1.87-7.26-6.84V36.43c0-5,2-6.84,7.26-6.84Z"/><path class="a" d="M248.46,29.59c4,0,5.57,1.84,5.57,5.34v1.48c0,3-1.14,4.69-3.86,5.18l4.43,5.49a.4.4,0,0,1-.33.65h-3.34c-.45,0-.58-.1-.73-.34L246.11,42h-8.37v5.16a.5.5,0,0,1-.57.57h-2.8c-.39,0-.6-.18-.6-.57V30.37a.69.69,0,0,1,.78-.78Zm-10.72,9.25h9.92c1.76,0,2.41-.75,2.41-2.3V35.45c0-1.56-.65-2.31-2.41-2.31h-9.59c-.23,0-.33.11-.33.31Z"/><path class="b" d="M53.59,40.48a3.32,3.32,0,0,1-.08,4.61,3.36,3.36,0,0,1-4.68,0L45.29,41.6,44.7,41l-.15-.15-.28-.28-.5-.5-.17-.17-.5-.51-.22-.21c-.33-.33-.53-.54-.55-.55v0h0L35.71,32l0,0-.22-.22,0,0-.38-.37L34.84,31a6.58,6.58,0,0,1-1.09-2.64v0a4.68,4.68,0,0,1-.1-1.11,6.57,6.57,0,0,1,1.9-4.62l0,0,6.68-6.69,6.57-6.56a3.32,3.32,0,0,1,5.66,2.35,3.28,3.28,0,0,1-.88,2.25.43.43,0,0,1-.09.1l-4.6,4.6-4,4-1.14,1.14-.09.09A4.79,4.79,0,0,0,43.2,30a4.34,4.34,0,0,0,.48.58h0l.09.09h0l1.15,1.16,3.89,3.88,4.68,4.68Zm-12,4.81L41,44.7l-.15-.15-.28-.28-.5-.5-.17-.17-.51-.51-.21-.21c-.33-.33-.54-.53-.55-.55l0,0h0L32,35.71l0,0c-.07-.08-.15-.15-.22-.22l0,0-.38-.38c-.12-.08-.24-.16-.37-.23a6.58,6.58,0,0,0-2.64-1.09h0a5.25,5.25,0,0,0-1.11-.09,6.57,6.57,0,0,0-4.62,1.9l0,0-6.68,6.68L9.35,48.82a3.32,3.32,0,0,0,2.35,5.66A3.28,3.28,0,0,0,14,53.6l.1-.09,4.6-4.6,4-4,1.15-1.15.08-.08a5.85,5.85,0,0,1,.54-.45,4.78,4.78,0,0,1,5.58,0,3.79,3.79,0,0,1,.58.48h0l.09.09h0l1.16,1.15,3.89,3.89,4.68,4.68.08.08a3.32,3.32,0,0,0,2.27.89,3.28,3.28,0,0,0,2.34-1,3.36,3.36,0,0,0,0-4.68ZM15.92,12.23l6.68,6.68,0,0a6.57,6.57,0,0,0,4.62,1.89,5.25,5.25,0,0,0,1.11-.09h0A6.31,6.31,0,0,0,31,19.64c.13-.07.25-.15.37-.23l.38-.37,0,0,.22-.23,0,0,6.6-6.6h0l0,0,.55-.55.21-.21.51-.5.17-.18.5-.5.28-.28L41,9.78l.59-.59,3.54-3.54A3.36,3.36,0,0,0,45.1,1a3.28,3.28,0,0,0-2.34-1,3.32,3.32,0,0,0-2.27.89L40.41,1,35.73,5.65,31.84,9.54,30.68,10.7h0l-.09.1h0a4.55,4.55,0,0,1-.58.49,4.77,4.77,0,0,1-2.76.87,4.82,4.82,0,0,1-2.82-.91,6,6,0,0,1-.54-.46l-.08-.08L22.64,9.56l-4-4L14.05,1,14,.88A3.32,3.32,0,0,0,9.35,1a3.33,3.33,0,0,0,0,4.69ZM9.78,41l.15-.15.28-.28.5-.5.18-.17.5-.51.21-.21.55-.55,0,0h0l6.6-6.6,0,0,.23-.22,0,0,.37-.37.23-.37a6.31,6.31,0,0,0,1.09-2.64v0a5.25,5.25,0,0,0,.09-1.11,6.57,6.57,0,0,0-1.89-4.62l0,0L12.23,15.9,5.66,9.34A3.32,3.32,0,0,0,0,11.69a3.28,3.28,0,0,0,.88,2.25L1,14l4.6,4.6,4,4,1.15,1.14.08.09a4.73,4.73,0,0,1,1.37,3.36A4.79,4.79,0,0,1,11.29,30a5.37,5.37,0,0,1-.49.58h0l-.1.09h0L9.54,31.83,5.65,35.71,1,40.39l-.08.09A3.32,3.32,0,0,0,1,45.09a3.36,3.36,0,0,0,4.68,0L9.19,41.6Z"/></svg>